<svg id="_0502_progress" xmlns="http://www.w3.org/2000/svg" xmlns:xlink="http://www.w3.org/1999/xlink" viewBox="0 0 500 500" data-imageid="progress-14" imageName="Progress" class="illustrations_image" style="width: 166px;"><defs><style>.cls-1_progress-14{opacity:.44;}.cls-1_progress-14,.cls-2_progress-14,.cls-3_progress-14,.cls-4_progress-14,.cls-5_progress-14,.cls-6_progress-14,.cls-7_progress-14,.cls-8_progress-14,.cls-9_progress-14,.cls-10_progress-14,.cls-11_progress-14,.cls-12_progress-14,.cls-13_progress-14,.cls-14_progress-14,.cls-15_progress-14,.cls-16_progress-14,.cls-17_progress-14,.cls-18_progress-14,.cls-19_progress-14,.cls-20_progress-14,.cls-21_progress-14,.cls-22_progress-14,.cls-23_progress-14,.cls-24_progress-14,.cls-25_progress-14,.cls-26_progress-14,.cls-27_progress-14{stroke-width:0px;}.cls-1_progress-14,.cls-3_progress-14,.cls-13_progress-14{isolation:isolate;}.cls-1_progress-14,.cls-3_progress-14,.cls-13_progress-14,.cls-27_progress-14{fill:#68e1fd;}.cls-2_progress-14{fill:url(#linear-gradient);}.cls-3_progress-14{opacity:.18;}.cls-4_progress-14{fill:url(#linear-gradient-11-progress-14);}.cls-5_progress-14{fill:url(#linear-gradient-12-progress-14);}.cls-6_progress-14{fill:url(#linear-gradient-13-progress-14);}.cls-7_progress-14{fill:url(#linear-gradient-10-progress-14);}.cls-8_progress-14{fill:url(#linear-gradient-17-progress-14);}.cls-9_progress-14{fill:url(#linear-gradient-16-progress-14);}.cls-10_progress-14{fill:url(#linear-gradient-15-progress-14);}.cls-11_progress-14{fill:url(#linear-gradient-18-progress-14);}.cls-12_progress-14{fill:url(#linear-gradient-14-progress-14);}.cls-13_progress-14{opacity:.16;}.cls-14_progress-14{fill:url(#linear-gradient-4-progress-14);}.cls-15_progress-14{fill:url(#linear-gradient-2-progress-14);}.cls-16_progress-14{fill:url(#linear-gradient-3-progress-14);}.cls-17_progress-14{fill:url(#linear-gradient-8-progress-14);}.cls-18_progress-14{fill:url(#linear-gradient-9-progress-14);}.cls-19_progress-14{fill:url(#linear-gradient-7-progress-14);}.cls-20_progress-14{fill:url(#linear-gradient-5-progress-14);}.cls-21_progress-14{fill:url(#linear-gradient-6-progress-14);}.cls-22_progress-14{fill:#963637;}.cls-23_progress-14{fill:#231f20;}.cls-24_progress-14{fill:#c14834;}.cls-25_progress-14{fill:#fff;}.cls-26_progress-14{fill:#ffaa71;}</style><linearGradient id="linear-gradient-progress-14" x1="345.18" y1="3073.36" x2="353.38" y2="2962.75" gradientTransform="translate(-31 3367.76) scale(1 -1)" gradientUnits="userSpaceOnUse"><stop offset="0" stop-color="#231f20"/><stop offset=".08" stop-color="#231f20" stop-opacity=".69"/><stop offset=".21" stop-color="#231f20" stop-opacity=".32"/><stop offset="1" stop-color="#231f20" stop-opacity="0"/></linearGradient><linearGradient id="linear-gradient-2-progress-14" x1="-501.78" y1="2638.83" x2="-642.03" y2="2519.36" gradientTransform="translate(2131.03 2169.14) rotate(-35.26) scale(1 -1)" gradientUnits="userSpaceOnUse"><stop offset="0" stop-color="#000"/><stop offset=".13" stop-color="#000" stop-opacity=".69"/><stop offset=".25" stop-color="#000" stop-opacity=".32"/><stop offset="1" stop-color="#000" stop-opacity="0"/></linearGradient><linearGradient id="linear-gradient-3-progress-14" x1="342.07" y1="3033.85" x2="126.29" y2="2980.01" gradientTransform="translate(-69.95 3338.76) scale(1 -1)" xlink:href="#linear-gradient-2-progress-14"/><linearGradient id="linear-gradient-4-progress-14" x1="368.33" y1="3084.05" x2="412.58" y2="2712.12" gradientTransform="translate(-69.95 3338.76) scale(1 -1)" xlink:href="#linear-gradient-progress-14"/><linearGradient id="linear-gradient-5-progress-14" x1="689.48" y1="2995.57" x2="805.64" y2="2926.51" gradientTransform="translate(-642.97 3338.76) scale(1 -1)" xlink:href="#linear-gradient-progress-14"/><linearGradient id="linear-gradient-6-progress-14" x1="187.83" y1="3010.57" x2="160.48" y2="3137.43" gradientTransform="translate(-69.95 3338.76) scale(1 -1)" xlink:href="#linear-gradient-progress-14"/><linearGradient id="linear-gradient-7-progress-14" x1="734.7" y1="3001.6" x2="672.64" y2="2948.39" gradientTransform="translate(-642.97 3338.76) scale(1 -1)" xlink:href="#linear-gradient-progress-14"/><linearGradient id="linear-gradient-8-progress-14" x1="718.4" y1="3035.86" x2="695.43" y2="2986.83" gradientTransform="translate(-642.97 3338.76) scale(1 -1)" xlink:href="#linear-gradient-progress-14"/><linearGradient id="linear-gradient-9-progress-14" x1="712.69" y1="2975.16" x2="755.5" y2="2965.53" gradientTransform="translate(-642.97 3338.76) scale(1 -1)" xlink:href="#linear-gradient-progress-14"/><linearGradient id="linear-gradient-10-progress-14" x1="743.09" y1="3060.65" x2="658.64" y2="3015.6" gradientTransform="translate(-642.97 3338.76) scale(1 -1)" xlink:href="#linear-gradient-progress-14"/><linearGradient id="linear-gradient-11-progress-14" x1="311.49" y1="3030.38" x2="243.36" y2="3039.14" gradientTransform="translate(-69.95 3338.76) scale(1 -1)" xlink:href="#linear-gradient-progress-14"/><linearGradient id="linear-gradient-12-progress-14" x1="247.91" y1="3023.08" x2="409.93" y2="3051.16" gradientTransform="translate(-69.95 3338.76) scale(1 -1)" xlink:href="#linear-gradient-progress-14"/><linearGradient id="linear-gradient-13-progress-14" x1="290.16" y1="2980.79" x2="347.04" y2="2992.22" gradientTransform="translate(-69.95 3338.76) scale(1 -1)" xlink:href="#linear-gradient-progress-14"/><linearGradient id="linear-gradient-14-progress-14" x1="300.57" y1="3040.2" x2="329.73" y2="3070.4" gradientTransform="translate(-69.95 3338.76) scale(1 -1)" xlink:href="#linear-gradient-progress-14"/><linearGradient id="linear-gradient-15-progress-14" x1="276.86" y1="3027.25" x2="341.3" y2="3034.81" gradientTransform="translate(-69.95 3338.76) scale(1 -1)" xlink:href="#linear-gradient-progress-14"/><linearGradient id="linear-gradient-16-progress-14" x1="531.74" y1="3048.88" x2="413.27" y2="3009.08" gradientTransform="translate(-69.95 3338.76) scale(1 -1)" xlink:href="#linear-gradient-progress-14"/><linearGradient id="linear-gradient-17-progress-14" x1="509.55" y1="3050.22" x2="448.92" y2="3068.03" gradientTransform="translate(-69.95 3338.76) scale(1 -1)" xlink:href="#linear-gradient-progress-14"/><linearGradient id="linear-gradient-18-progress-14" x1="571.12" y1="2982.88" x2="304.82" y2="3006.28" gradientTransform="translate(-69.95 3338.76) scale(1 -1)" xlink:href="#linear-gradient-progress-14"/></defs><g id="background_progress-14"><path class="cls-3_progress-14 targetColor" d="M170.38,68.06c-26.17,2.24-50.15,15.48-66,36.42-15.41,20.68-21.35,46.7-26.06,72.07-1.06,7.51-3.03,14.86-5.85,21.9-5.67,12.47-16.54,21.64-25.73,31.8-23.39,25.95-35.42,61.04-35.13,95.79.16,30.66,10.21,76.72,40.34,91.32,44.37,21.33,94.72,26.83,142.65,15.57,30.22-7.2,59.5-21.08,90.57-20.35,31.06.73,60.3,16.08,91.35,17.59,35.7,1.36,69.66-15.43,90.23-44.63,8.71-13.26,15.19-27.85,19.19-43.21,5.24-18.49,8.27-37.54,9.03-56.75,2.27-61.13-38.78-120.36-89.77-150.92-113.85-68.11-203.28-69.11-234.82-66.62Z" style="fill: rgb(178, 41, 13);"/><path class="cls-1_progress-14 targetColor" d="M102.79,390.86c11.63,0,23.73,1.36,33.64,7.43.9.43,1.63,1.16,2.05,2.07.78,2.22-1.96,3.98-4.22,4.71-13.91,4.15-28.41,6-42.92,5.49-9.67-.22-19.33-1.02-28.91-2.38-3.36-.19-6.63-1.14-9.56-2.8-2.95-1.79-4.39-5.28-3.56-8.63,1.18-3.29,5.03-4.83,8.52-5,14.79-.93,30.02-.82,44.96-.89Z" style="fill: rgb(178, 41, 13);"/><path class="cls-1_progress-14 targetColor" d="M406.84,381.92l23.55,3.27c1.13.05,2.23.42,3.16,1.07,1.27,1.35,1.48,3.37.53,4.96-.98,1.52-2.29,2.79-3.82,3.74,5.58,1.33,15.3,1.05,15.03,9.01-.16,3-2.01,5.64-4.78,6.8-1.69.58-3.46.85-5.25.82-17.41.6-35.09,1.2-51.94-3.18-3.22-.82-7.03-2.65-7.03-5.96,0-1.18.51-2.22.58-3.47.38-7.54-15.72-3.11-19.86-2.87-9.21.53-18.41.89-27.62,1.13-18.81.51-37.62.49-56.41.22-5.94-.28-11.89-.03-17.79.73-4.63.78-9.12,2.22-13.65,3.36-14.95,3.8-30.5,4.6-45.76,2.36-6.92-1.02-15.41-4.74-14.97-11.72.38-5.98,7.18-9.09,12.99-10.65,8.58-2.27,17.3-3.96,26.11-5.07,15.58-1.72,31.25-2.5,46.92-2.33,34.04-.27,68.09-.29,102.15-.31,11.45-.09,26.53,6.52,37.87,8.09Z" style="fill: rgb(178, 41, 13);"/></g><g id="monitor_progress-14"><polygon class="cls-27_progress-14 targetColor" points="366.04 352.97 271 352.97 287.84 305.56 351.85 305.56 366.04 352.97" style="fill: rgb(178, 41, 13);"/><polygon class="cls-2_progress-14" points="366.04 352.97 271 352.97 287.84 305.56 351.85 305.56 366.04 352.97"/><path class="cls-27_progress-14 targetColor" d="M121.31,362.31c2.33,2.63,5.26,4.67,8.54,5.94,14.41,6.67,29.49,12.85,45.34,14.23,23.33,2.02,46.18-6.16,68.15-14.21-2.22.36-10.21-6.67-12.25-8.09-4.02-2.65-7.98-5.4-11.94-8.12-6.29-4.29-14.14-5.74-21.61-6.89-16.86-2.55-34.09-1.08-50.28,4.29-9.22,3.03-17.96,7.35-25.95,12.85Z" style="fill: rgb(178, 41, 13);"/><path class="cls-15_progress-14" d="M121.31,362.31c2.33,2.63,5.26,4.67,8.54,5.94,14.41,6.67,29.49,12.85,45.34,14.23,23.33,2.02,46.18-6.16,68.15-14.21-2.22.36-10.21-6.67-12.25-8.09-4.02-2.65-7.98-5.4-11.94-8.12-6.29-4.29-14.14-5.74-21.61-6.89-16.86-2.55-34.09-1.08-50.28,4.29-9.22,3.03-17.96,7.35-25.95,12.85Z"/><path class="cls-27_progress-14 targetColor" d="M197.98,317.59c-8.89-9.45-18.03-19.03-29.17-25.79-11.14-6.76-24.75-10.45-37.33-7.12l31.13,45.85c6,8.89,12.12,17.79,20.52,24.46,14.72,11.52,42.07,17.92,60.15,12.39-2.8-8.56-13.96-16.61-20.17-23.17l-25.13-26.62Z" style="fill: rgb(178, 41, 13);"/><path class="cls-16_progress-14" d="M197.98,317.59c-8.89-9.45-18.03-19.03-29.17-25.79-11.14-6.76-24.75-10.45-37.33-7.12l31.13,45.85c6,8.89,12.12,17.79,20.52,24.46,14.72,11.52,42.07,17.92,60.15,12.39-2.8-8.56-13.96-16.61-20.17-23.17l-25.13-26.62Z"/><path class="cls-27_progress-14 targetColor" d="M401.57,359.29c-2.7,2.7-4.21,6.37-4.2,10.18,0,2,.41,3.98,1.22,5.8,1.76,4.01,5.24,6.99,9.47,8.12v3.29h-173.44c-7.41,0-14-4.74-16.32-11.79-.59-1.75-.89-3.58-.89-5.43-.01-9.49,7.67-17.2,17.17-17.21.01,0,.03,0,.04,0h173.44v3.29c-2.45.66-4.69,1.95-6.49,3.74Z" style="fill: rgb(178, 41, 13);"/><path class="cls-14_progress-14" d="M408.07,383.39v3.29h-173.44c-7.41,0-14-4.74-16.32-11.79,6.67,1.16,48.27,7.8,71.49-5.43l108.74,5.8c1.77,4.02,5.29,7.01,9.54,8.12Z"/><path class="cls-25_progress-14" d="M401.57,359.29c-5.62,5.63-5.61,14.76.02,20.38,1.79,1.79,4.03,3.08,6.47,3.73v.49h-103.8c-7.98,0-14.45-6.47-14.45-14.45s6.47-14.45,14.45-14.45h103.8v.47c-2.46.69-4.7,2.02-6.49,3.85Z"/><rect class="cls-27_progress-14 targetColor" x="182.35" y="133.39" width="280.4" height="189.96" rx="17.06" ry="17.06" style="fill: rgb(178, 41, 13);"/><path class="cls-23_progress-14" d="M462.72,150.44v136.69H182.33v-136.69c.01-9.41,7.64-17.04,17.06-17.06h246.29c9.41.01,17.04,7.64,17.06,17.06Z"/><path class="cls-25_progress-14" d="M458.57,153.71v128.97H186.55v-128.97c.05-9.09,7.46-16.41,16.54-16.37h238.86c9.09-.09,16.52,7.21,16.61,16.3,0,.02,0,.05,0,.07Z"/><path class="cls-3_progress-14 targetColor" d="M458.57,153.71v128.97H186.55v-128.97c.05-9.09,7.46-16.41,16.54-16.37h238.86c9.09-.09,16.52,7.21,16.61,16.3,0,.02,0,.05,0,.07Z" style="fill: rgb(178, 41, 13);"/><rect class="cls-3_progress-14 targetColor" x="210.08" y="154.22" width="89.57" height="82.27" style="fill: rgb(178, 41, 13);"/></g><g id="character_1_progress-14"><polygon class="cls-27_progress-14 targetColor" points="93.76 326.62 92.33 396.13 82.91 396.13 80.19 340.87 74.28 396.13 63.47 397.93 60.98 324.33 93.76 326.62" style="fill: rgb(178, 41, 13);"/><polygon class="cls-20_progress-14" points="93.76 326.62 92.33 396.13 82.91 396.13 80.19 340.87 74.28 396.13 63.47 397.93 60.98 324.33 93.76 326.62"/><path class="cls-27_progress-14 targetColor" d="M124.44,263.07c-4.28,7.9-8.97,15.56-14.05,22.97-1.92,2.2-4.69,3.47-7.6,3.51-1.18-.01-2.36-.19-3.49-.53-3.36-.82-6.67-1.8-10.01-2.89-.28-.11-.55-.24-.8-.4h0c-2.22-1.62-2.71-6.09-3.2-8.67-.27-1.42-1.58-7.07.84-7.49,1.22-.22,5.23,3.34,6.36,4.02,2.38,1.44,4.83,2.75,7.34,3.94.3.19.65.28,1,.27.38-.11.71-.33.96-.64,5.09-5.97,9.36-12.6,12.7-19.7.98.42,1.93.89,2.89,1.38,1.33.7,2.65,1.44,3.94,2.22l.4.22c1.09.53,1.87,1.09,2.74,1.8Z" style="fill: rgb(178, 41, 13);"/><path class="cls-21_progress-14" d="M124.44,263.07c-4.28,7.9-8.97,15.56-14.05,22.97-1.92,2.2-4.69,3.47-7.6,3.51-1.18-.01-2.36-.19-3.49-.53-3.36-.82-6.67-1.8-10.01-2.89-.28-.11-.56-.24-.82-.4-.18,0-.64-1.73-.71-1.96-.23-.73-.4-1.47-.51-2.22-.2-1.48-.2-2.97,0-4.45,0-.51.13-.89.6-.49s.29.42.49.6.69.49,1.02.73c.93.67,1.87,1.33,2.87,1.96,1.92,1.15,3.97,2.04,6.11,2.67,1.43.5,2.94.72,4.45.64,2.31-.29,4.3-1.77,5.25-3.89.78-1.2,1.53-2.45,2.22-3.69.71-1.25,1.53-2.43,2.45-3.54,1.96-2.36,3.89-4.71,5.85-7.05.99-1.35,2.09-2.63,3.29-3.8.96.56,1.73,1.11,2.6,1.82Z"/><polygon class="cls-19_progress-14" points="69.92 395.04 69.92 330.6 60.98 324.33 64.01 396.13 69.92 395.04"/><path class="cls-27_progress-14 targetColor" d="M67.96,265.12c-2.52,1.26-4.97,2.64-7.34,4.16-5.05,3.22-4.14,4.71-3.2,10.3,1.96,11.91,2.95,23.97,2.96,36.05-.2,2.92,0,5.85.6,8.72.82,1.66,1.44,3.4,1.87,5.2,7.78,1.07,25.57,5.07,30.89-2.91,5.31-7.98-4.07-34.82-2.36-46.87,1.71-12.05-13.94-13.34-13.94-13.34l-9.47-1.29Z" style="fill: rgb(178, 41, 13);"/><path class="cls-23_progress-14" d="M83.86,309.59l1.8-10.1c.28-1.23,1.33-2.13,2.58-2.22l19.39-1.51c1.07-.06,1.98.75,2.04,1.82,0,.13,0,.27-.02.4l-7.47,33.64c-.2.87-.98,1.48-1.87,1.49h-17.79c-1.06,0-1.91-.85-1.92-1.91,0-.11,0-.21.03-.31l3.22-21.3Z"/><path class="cls-17_progress-14" d="M78.68,320.88l-14.1,9.52-2.22-2.96c-1.36-4.9-2-9.97-1.89-15.05.33-7.58,0-4.87,0-4.87l19.83,12.54-1.62.82Z"/><path class="cls-26_progress-14" d="M85.69,253.35c.02.8-.02,1.61-.13,2.4-.37,1.66-1.02,3.25-1.93,4.69-.23.5-.57.94-1,1.29-.9.45-1.95.54-2.91.24-.23-.06-.46-.06-.69,0-.56.22-.62.98-.6,1.58l.16,2.76c.07.38,0,.77-.18,1.11-.2.21-.45.37-.73.47-2.08.69-4.38.17-5.96-1.36-.38-.35-.7-.78-.93-1.25-.18-.46-.29-.95-.33-1.45-.33-2.65,0-5.31-.24-7.98-.36-2.21-.43-4.45-.2-6.67.44-2.39,2.04-4.41,4.27-5.38,2.28-.72,4.73-.66,6.98.16,1.1.31,2.18.67,3.25,1.09.52.15.97.48,1.27.93.42.84,0,2.07,0,2.98-.09,1.51-.07,2.98-.07,4.38Z"/><path class="cls-22_progress-14" d="M85.71,242.48c.24.53.6,1,.87,1.53.32.5.42,1.11.29,1.69-.17.45-.46.85-.84,1.13-1.94,1.36-4.32,1.95-6.67,1.67-.67-.06-1.35-.06-2.02,0-.68.07-1.31.37-1.78.87-.53.91-.83,1.95-.87,3v.18s0,0,0,0c-.76,0-1.47-.78-2.22-.49-.34.2-.55.56-.56.96-.07.46,0,.93.2,1.36.09.17.14.35.16.53.02.12.02.24,0,.36l-.47,1.31c-.12.49-.42.92-.84,1.2-.61.19-1.28.06-1.78-.33-.39-.19-.72-.48-.98-.82-.18-.29-.3-.6-.36-.93-.64-3.29-.9-6.64-.78-9.98-.05-.75.06-1.51.31-2.22.85-1.39,2.29-2.3,3.91-2.47,2.93-.53,5.92-.75,8.89-.64.93-.04,1.86.02,2.78.18.92.19,1.75.67,2.38,1.36"/><path class="cls-22_progress-14" d="M81.11,256.4c-.47.24-.84.64-1.05,1.13v.18s0,0,.16,0c1.01.07,2.03.07,3.05,0,.77-.04,1.53-.24,2.22-.58.05.02.1.02.16,0,.01-.05.01-.1,0-.16-.05-.83-.76-1.47-1.59-1.43-.02,0-.04,0-.05,0-1.02.06-2,.35-2.89.84Z"/><path class="cls-25_progress-14" d="M70.43,263.85s-2.22,1.51-2.22,3.16,11.76,34.58,11.76,34.58c0,0,.27-31.53,0-33-.4-1.42-.93-2.81-1.58-4.14,0,0-4.51,3.38-7.96-.6Z"/><polygon class="cls-23_progress-14" points="74.28 266.83 73.48 269.38 74.81 270.47 75.44 288.37 80.08 301.58 80.19 288.15 76.21 270.41 77.66 267.9 75.75 266.83 74.28 266.83"/><path class="cls-27_progress-14 targetColor" d="M82.91,313.35c-1.38,1.75-2.94,3.33-4.67,4.74l-1.07.84c-.39.35-.87.57-1.38.64-.35,0-.7-.09-1.02-.24-6.8-2.64-13.48-5.6-20.01-8.89-2.71-1.4-5.71-3.22-6.29-6.23-.17-1.05-.17-2.11,0-3.16,1.02-7.63,3.01-15.1,5.91-22.24.82-2,1.85-5.87,3.98-7.18h.24l.31-.16c2.89-1.05,5.4,1.85,6.2,4.29.9,3.56.79,7.31-.33,10.81-1.11,3.47-1.94,7.02-2.47,10.63-.09.5-.04,1.01.13,1.49.27.46.65.84,1.11,1.11l19.35,13.54Z" style="fill: rgb(178, 41, 13);"/><path class="cls-23_progress-14" d="M82.91,396.13l.51,5.11,3.22.6,1.45-1.27,2.47,1.96h9.67s2.47-4.25-2.89-5.69l-5.34-1.45-9.09.73Z"/><path class="cls-23_progress-14" d="M64.01,396.13l.51,5.11,3.22.6,1.45-1.27,2.45,1.96h9.7s2.45-4.25-2.89-5.69l-5.36-1.45-9.07.73Z"/><polygon class="cls-18_progress-14" points="80.19 340.87 84.53 337.36 87.58 395.4 82.91 396.13 80.19 340.87"/><path class="cls-7_progress-14" d="M78.33,318.08l-1.07.84c-.39.35-.87.57-1.38.64-.35,0-.7-.09-1.02-.24-6.8-2.64-13.48-5.6-20.01-8.89-2.71-1.4-5.71-3.22-6.29-6.23-.17-1.05-.17-2.11,0-3.16,1.02-7.63,3.01-15.1,5.91-22.24.82-2,1.85-5.87,3.98-7.18h.24l.31-.16c2.77-.04,5.26,1.68,6.2,4.29,0,0-10.3,21.08-9.85,24.26s22.06,13.5,22.06,13.5l.91,4.56Z"/><path class="cls-26_progress-14" d="M87.75,315.12c.56.13,1.09.39,1.53.76.46.38.66.98.51,1.56-.17.33-.37.65-.6.93-.27.49-.31,1.11-.58,1.62-.5.8-1.3,1.36-2.22,1.56-2.55,1.15-5.51.88-7.8-.71-1.51-1.31-4.45-6.67-1.2-7.45,1.42-.08,2.85.07,4.22.44,2.08.26,4.13.69,6.14,1.29Z"/><path class="cls-25_progress-14" d="M91.89,297.67l.51-1.69c.09-.31.37-.54.69-.58l10.25-.76c.28-.03.53.17.56.45,0,.08,0,.16-.03.24l-.62,1.85c-.13.38-.47.64-.87.67l-9.87.6c-.33.03-.62-.22-.65-.55,0-.08,0-.16.03-.23Z"/><path class="cls-26_progress-14" d="M132.18,254.02c-.75,1.33-1.87,2.42-3.22,3.11-1.27.59-2.59,1.09-3.94,1.49-1.36.36-2.58,1.13-3.47,2.22l-.16.2c-1.29-.77-2.6-1.51-3.94-2.22.18-.36.51-.78.64-1.05.29-.64.51-1.31.78-1.96.96-2.24,2.57-4.15,4.63-5.47.16,0,.36-.2.51,0,.04.1.04.21,0,.31-.02.95-.28,1.87-.76,2.69l8.05-2.89c.2-.1.42-.14.64-.11.26.1.46.31.56.58.34,1.03.22,2.16-.33,3.09Z"/></g><g id="character_3_progress-14"><path class="cls-4_progress-14" d="M206.36,312.12c2.67-8.78,5.7-17.44,9.09-25.99.15-.35.41-.64.73-.82.37-.13.77-.13,1.13,0l7.4,1.05c-.48,4.16-1.71,8.19-3.65,11.9-2.87,6.81-4.98,13.92-6.27,21.19-.06.73-.29,1.44-.67,2.07-.79.92-1.9,1.51-3.11,1.62-3.62.76-5.98,1.87-6.67-1.82-.44-2.82,1.25-6.69,2-9.18Z"/><path class="cls-5_progress-14" d="M241.03,314.41h7.96c.55-.07,1.1.06,1.56.38.38.33.47.87.78,1.29.64.89,1.93.87,3.02.76,3.81-.43,7.58-1.17,11.27-2.22l-1.42-9.7c-6.75,1.5-13.66,2.17-20.57,2.02l-.38-11.67h10.5c.87.18,1.71-.38,1.89-1.25.05-.24.04-.49-.02-.73.02-1.43-.06-2.85-.24-4.27,0-.33-.14-.65-.38-.89-.3-.17-.65-.22-.98-.13-8,1.06-16.07,1.36-24.13.89-.45,11.92-2.62,23.72-6.45,35.02,4.27-.47,9.34.27,13.45-.67,1.96-.44,1.87-.64,2.49-2.76.18-.64,1.4-6.05,1.65-6.07Z"/><path class="cls-25_progress-14" d="M239.52,396.31c4.91.27,10.18.49,14.39-2.09.3-.16.56-.39.76-.67.2-.46.15-.99-.13-1.4-.3-.4-.69-.72-1.13-.93-1.57-.76-3.27-1.25-5-1.45-2.22-.38-4.25-.73-6.38-.96-1.38-.13-3.71-.69-4.83.42-.69,1.04-.88,2.34-.53,3.54.27,2,.64,3.4,2.87,3.54Z"/><path class="cls-25_progress-14" d="M206.94,390.75c3.87,3.05,8.09,6.2,13.01,6.49.33.05.67,0,.98-.13.44-.25.71-.72.71-1.22-.02-.5-.16-.99-.4-1.42-.88-1.5-1.99-2.86-3.29-4.02-1.53-1.51-3.07-3.02-4.71-4.45-1.05-.89-2.65-2.69-4.18-2.4s-1.96,1.6-2.47,2.6c-.91,1.8-1.4,3.18.36,4.56Z"/><path class="cls-23_progress-14" d="M245.36,385.17v4.89c-2.95.36-5.93.44-8.89.24-.47.09-.93-.22-1.02-.69-.02-.1-.02-.2,0-.29-.62-8.12.4-16.3-.53-24.35-.15-1.69-.54-3.35-1.16-4.94-.76-1.58-1.68-3.07-2.76-4.45-3.11-4.29-5.89-8.82-8.29-13.54-2.31-4.8-3.37-10.1-3.09-15.41,0-5.31,2.8-7.6,7.98-6.23.8.13,1.56.43,2.22.89.53.47.96,1.04,1.29,1.67,3.13,5.09,5.9,10.38,8.29,15.85,5.69,14.56,6.16,30.6,5.96,46.34Z"/><path class="cls-6_progress-14" d="M245.36,385.17v4.89c-2.95.36-5.93.44-8.89.24-.47.09-.93-.22-1.02-.69-.02-.1-.02-.2,0-.29-.62-8.12.4-16.3-.53-24.35-.15-1.69-.54-3.35-1.16-4.94-.76-1.58-1.68-3.07-2.76-4.45-3.11-4.29-5.89-8.82-8.29-13.54-2.31-4.8-3.37-10.1-3.09-15.41,0-5.31,2.8-7.6,7.98-6.23.8.13,1.56.43,2.22.89.53.47.96,1.04,1.29,1.67,3.13,5.09,5.9,10.38,8.29,15.85,5.69,14.56,6.16,30.6,5.96,46.34Z"/><path class="cls-26_progress-14" d="M248.19,291.58c10.56-2.94,19.63-9.73,25.44-19.03,1.11-1.37,1.51-3.18,1.09-4.89-.05-.21-.19-.39-.38-.49-.29-.13-.62,0-.91.24l-13.7,8.89c-3.66,2.68-7.74,4.74-12.07,6.09-.67,1.33-1.14,2.76-1.4,4.22.04,1.83.72,3.59,1.93,4.96Z"/><rect class="cls-25_progress-14" x="253.24" y="184.89" width="160.68" height="129.48"/><path class="cls-13_progress-14 targetColor" d="M275.87,311.79c-.74.5-1.58.82-2.47.93-5.85,1.17-11.83,1.56-17.79,1.16-.59.03-1.16-.13-1.65-.47-.48-.52-.75-1.2-.73-1.91-.16-1.83-.04-3.68.36-5.47,0-.24,14.54-.22,15.92,0,1.93.31,9.78,3,6.36,5.76Z" style="fill: rgb(178, 41, 13);"/><path class="cls-23_progress-14" d="M209.52,331.11c1.31,5.09,3.13,10.04,5.45,14.76,1.91,4.02,6.34,9.18,6.32,13.72,0,8.18-8.61,19.1-13.9,24.7,2.79,1.84,5.77,3.38,8.89,4.58.68.36,1.47.47,2.22.31.83-.36,1.48-1.03,1.82-1.87l5.76-9.98c3.2-5.56,6.52-11.43,6.78-17.79.01-2.33-.15-4.66-.49-6.96-.6-4.91,0-10.47-1.22-15.25-1.09-4.45-2.51-8.67-3.51-13.1-.25-2.29-1.31-4.41-2.98-5.98-.79-.53-1.67-.91-2.6-1.13-4.45-1.27-9.34-1.42-11.79,3.22-1.5,3.39-1.77,7.2-.76,10.76Z"/><path class="cls-25_progress-14" d="M249.55,282.88c2.45.89.16,6.67-.49,8.29-.13.81-.9,1.36-1.71,1.23-.08-.01-.15-.03-.23-.06-3.67-.33-7.34-.78-10.98-1.31-.78-.07-1.53-.3-2.22-.67-.87-.62-1.46-1.57-1.62-2.62-.33-1.71-.51-5.8.98-7.12,1.07-.96,3.22-.27,4.63-.13,3.97.32,7.88,1.12,11.65,2.38Z"/><path class="cls-12_progress-14" d="M248.77,285.31c2.45.89.16,6.67-.51,8.29-.1.42-.35.79-.69,1.05-.38.18-.81.22-1.22.13-3.69-.33-7.34-.78-10.98-1.29-.82-.08-1.61-.31-2.33-.69-.87-.62-1.45-1.57-1.6-2.62-.36-1.71-.51-5.8.98-7.12,1.07-.93,3.2-.27,4.63-.13,4,.31,7.94,1.11,11.74,2.38Z"/><path class="cls-26_progress-14" d="M242.41,261.82c.44.73,1.31,1.16,1.6,1.93s-.31,1.96-.67,2.91c-.47,1.33-.31,2.85-.78,4.18-.09.29-.26.56-.49.76-.21.15-.46.24-.71.29-.99.2-2.01.26-3.02.18-.19-.07-.39-.07-.58,0-.15.13-.25.31-.27.51-.62,2.53-.62,5.18,0,7.72.22.82.47,1.85-.16,2.45-.22.2-.49.33-.78.38-2.01.18-3.95-.75-5.07-2.42-1.17-1.36-2.17-2.85-2.98-4.45-.25-.44-.42-.91-.51-1.4-.02-.64.07-1.28.27-1.89.55-2.1.89-4.26,1-6.43-.12-2.77.22-5.54,1-8.21.31-.9.9-1.68,1.69-2.22.93-.44,1.96-.6,2.98-.47,2.03-.14,4.04.51,5.6,1.82.51.6,1.33,3.38,1.87,4.36Z"/><path class="cls-23_progress-14" d="M241.58,255.24c.82-.16,1.42.96,1.11,1.71-.41.75-1.17,1.24-2.02,1.31-.83.07-1.65.19-2.47.36-.84.21-1.45.92-1.53,1.78-.94-.13-1.84.46-2.09,1.38-.23.9-.23,1.84,0,2.74-.27.29-.73,0-.98-.2s-.4-.64-.71-.84c-.71-.38-1.56.51-1.47,1.31.21.78.67,1.47,1.31,1.96.15.12.28.27.36.44.22.67-.67,1.13-1.36,1.29.06.52,0,1.04-.18,1.53-.17.51-.64.86-1.18.87-.47,0-.84-.38-1.27-.56s-1.09,0-1.13.4c-.71-1.49,0-2.89-.27-4.45s-1.42-.82-2.22-1.69c-.42-.49-.4-1.22-.6-1.85s-.91-1.45-1.09-2.22c-.31-1.38.84-2.62,1.89-3.56-.23-.53-.09-1.15.33-1.53.43-.35.96-.57,1.51-.64.14-.02.28-.07.4-.16.18-.18.13-.47,0-.71-.33-4.2,6.52-3.05,9.03-2.82,1.05.09,2.06.44,2.96,1,.51.27,2.6,2.98,1.67,3.16Z"/><path class="cls-25_progress-14" d="M228.29,275.21h.16c3.67.91,9.01,4.25,10.21,7.96,1.75,5.06,2.24,10.47,1.42,15.77-.76,3.36-2.8,6.27-3.65,9.54-.61,3.62-1.47,7.2-2.58,10.7-.52,1.62-1.55,3.02-2.94,4-1.26.62-2.65.92-4.05.89-4.11.22-9.9,1.62-13.34-1.2-2.52-2.36-3.8-5.75-3.47-9.18.36-3.39,1.24-6.69,2.62-9.81l5.71-14.9c1.42-3.54,4.76-14.79,9.9-13.76Z"/><path class="cls-10_progress-14" d="M225.29,311.99c.31.53.53,1.12.62,1.73,0,.44-.07.89-.2,1.31-.59,2.42-.84,4.91-.73,7.4-.05.45.09.9.38,1.25.32.24.71.35,1.11.33,1.43.24,2.9.1,4.25-.42,1.47-.9,2.57-2.28,3.11-3.91,1.81-4.53,3.2-9.22,4.14-14.01.24-.77.32-1.58.22-2.38-.32-1.21-1.13-2.24-2.22-2.85-1-.69-2.22-1.18-3.09-1.91-1.89-1.47-3.29-4.09-5.87-4.45-1.85-.15-3.53,1.05-4,2.85-1.56,4.45.2,10.83,2.29,15.05Z"/><path class="cls-25_progress-14" d="M231.49,286.08s5.23,14.16,6.27,15.21-10.1,7.29-10.1,7.29c0,0-7.25-13.76-6.89-19.75.36-5.98,6.54-8.38,10.72-2.76Z"/><path class="cls-26_progress-14" d="M227.66,306.68c.42,2.88,3.1,4.87,5.98,4.45,0,0,0,0,0,0l9.47-.13c4.45,0,8.72-.2,13.07-.18,1.07.15,2.11.41,3.11.8,1.36.3,2.75.39,4.14.24,2.73-.29,5.28-1.47,7.27-3.36,1.38-1.03,1.97-2.8,1.49-4.45-.09-.21-.25-.39-.44-.51-.18-.03-.36-.03-.53,0-2.6.45-5.26.4-7.85-.13.21-.33.32-.72.31-1.11,0-.38-.4-.76-.78-.67-.2.07-.38.19-.51.36-1.29,1.45-3.18,2.2-5.11,2.02-7.18-.33-14.25-1.87-21.44-2.22-1.68-.18-3.37,0-4.98.51-1.71.86-2.91,2.49-3.2,4.38Z"/><path class="cls-27_progress-14 targetColor" d="M404.64,299.49h-139.53v-97.19h139.64l-.11,97.19ZM266.24,298.25h137.15v-94.7h-137.15v94.7Z" style="fill: rgb(178, 41, 13);"/><polygon class="cls-27_progress-14 targetColor" points="277.56 282.04 272.36 276.66 297.44 252.42 313.65 259.85 341.78 233.74 356.57 243.08 385.39 219.51 390.12 225.29 357.15 252.29 342.65 243.15 315.08 268.74 298.98 261.36 277.56 282.04" style="fill: rgb(178, 41, 13);"/><polygon class="cls-27_progress-14 targetColor" points="395.39 235.59 387.92 235.59 387.92 222.82 374.8 222.82 374.8 215.33 395.39 215.33 395.39 235.59" style="fill: rgb(178, 41, 13);"/></g><g id="character_2_progress-14"><path class="cls-9_progress-14" d="M414.09,294.96c-.07.59.25,1.16.8,1.4.55.21,1.13.28,1.71.22h2.49c.25-.02.51.03.73.16.27.27.4.65.36,1.02l.27,10.58c.24,2.42-.09,4.85-.98,7.12-.53,1.09-1.33,2.02-1.89,3.09-.65,1.03-.82,2.3-.47,3.47,4.22.18,8.45.18,12.65,0,.8.06,1.59-.17,2.22-.67.29-.33.49-.71.6-1.13,1.25-3.52,2.27-7.11,3.07-10.76.84-3.46,1.23-7.01,1.18-10.56-.07-3.58-1.07-7.07-2.91-10.14-.44-.77-1.03-1.45-1.73-1.98-.73-.46-1.55-.79-2.4-.96-4.21-.96-8.51-1.53-12.83-1.69-1.43-.25-2.91-.02-4.2.64-1.25.94-1.92,2.47-1.76,4.02.17,1.55.61,3.05,1.29,4.45"/><path class="cls-27_progress-14 targetColor" d="M424.12,279.5c-3.11,2.47-6.71,4.26-10.56,5.25-.49.02-.94.24-1.27.6-.15.38-.15.8,0,1.18.58,2.78,1.42,5.49,2.49,8.12,5.68-.74,11.14-2.66,16.03-5.65.81-.43,1.51-1.04,2.05-1.78.42-.87.65-1.82.67-2.78.2-2.65.58-6.4-.98-8.74-1.25-1.82-1.91-.62-3.56.51l-4.87,3.29Z" style="fill: rgb(178, 41, 13);"/><path class="cls-8_progress-14" d="M426.12,279.06c-3.11,2.48-6.71,4.27-10.56,5.25-.5.01-.97.24-1.29.62-.15.37-.15.78,0,1.16.58,2.77,1.4,5.49,2.47,8.12,5.69-.74,11.16-2.67,16.05-5.65.81-.43,1.5-1.03,2.02-1.78.44-.86.67-1.81.67-2.78.2-2.62.6-6.4-.98-8.72-1.22-1.82-1.91-.64-3.56.49l-4.83,3.29Z"/><path class="cls-13_progress-14 targetColor" d="M400.53,260.65c-.21,1.16-.21,2.35,0,3.51.48,1.64,1.3,3.15,2.4,4.45,4.4,6.12,7.86,12.86,10.25,20.01.89-3.94,1.23-7.99,1-12.03.04-1.42-.06-2.83-.31-4.22-.54-1.92-1.29-3.78-2.22-5.54-1.3-2.85-2.27-5.83-2.91-8.89-.44-2.22-1.2-7.56-4.58-7.2-2.91.47-3.4,7.76-3.62,9.92Z" style="fill: rgb(178, 41, 13);"/><path class="cls-24_progress-14" d="M423.14,272.76c-1.76.79-3.37,1.88-4.76,3.22-1.45,1.33-2.25,3.22-2.22,5.18.42,2.32,1.72,4.39,3.62,5.78,2,1.76,4.45,3.6,4.6,6.29,1.45-1.07,2.76-2.22,4.22-3.34,2.72-1.58,5.57-2.92,8.52-4.02,2.98-1.12,5.47-3.24,7.05-6,.73-1.78,1.15-3.68,1.25-5.6.28-2.06.34-4.15.16-6.23-.2-2.09-1.11-4.04-2.58-5.54-2.25-1.73-4.91-2.85-7.72-3.27-3.23.14-6.08,2.15-7.32,5.14-.58,1.56-.31,3.34-.89,4.87-.82,1.63-2.23,2.88-3.94,3.51Z"/><path class="cls-26_progress-14" d="M398.53,398.91c-.56.05-1.11.2-1.62.42-.51.25-.84.76-.87,1.33.11.55.48,1.02,1,1.25.49.24,1.05.36,1.53.62.41.28.85.53,1.31.73.82.16,1.66.04,2.4-.33,3.49-1.22,7.16-1.83,10.85-1.78.35.04.71.04,1.07,0,1.09-.37,1.9-1.31,2.11-2.45.51-2.29.51-4.67,0-6.96-.04-.26-.13-.51-.27-.73-.16-.17-.37-.3-.6-.36-3.62-1.38-5.18,2.22-7.56,4.18-2.7,2.17-5.93,3.57-9.36,4.07Z"/><path class="cls-27_progress-14 targetColor" d="M410.6,399.02h-.71c-1.63.18-3.28.22-4.91.13-.31,0-.62-.07-.89-.22-.35-.29-.55-.72-.53-1.18.04-.44.04-.89,0-1.33-.02-.09-.07-.18-.13-.24-.08-.02-.16-.02-.24,0-1.26.04-2.49.38-3.58,1-2.25.9-4.19,2.45-5.56,4.45-.12.17-.19.37-.2.58,0,.18.08.35.2.49,1.47,2.22,5.14,1.73,7.38,1.27s4.89-1.49,7.43-1.89,5.78-.22,8.18-1.69c.39-.21.72-.53.96-.91.44-1.38.07-2.9-.98-3.91-.08-.12-.2-.21-.33-.24-.18-.02-.36.02-.51.13-1.13.71-1.89,1.96-3.05,2.67-.76.48-1.62.79-2.51.91Z" style="fill: rgb(178, 41, 13);"/><path class="cls-27_progress-14 targetColor" d="M435.46,306.14s11.32,6.49,8.16,18.34c-2.78,10.36-10.74,16.81-15.83,25.66-2.82,4.89-2.22,12.92-3.49,18.63-1.47,7-3.49,13.88-6.03,20.57-.53,1.33-1.36,2.91-2.8,2.96-.67-.09-1.34-.22-2-.38-.64.07-1.29.07-1.93,0-1.65-.38-1.65-2.71-1.27-4.45,1.8-7.94,2.89-16.03,3.25-24.17.27-6.27-1.42-12.92.36-19.01,1.4-4.8,9.81-30.6,9.81-30.6l11.79-7.56Z" style="fill: rgb(178, 41, 13);"/><path class="cls-11_progress-14" d="M435.46,306.14s11.32,6.49,8.16,18.34c-2.78,10.36-10.74,16.81-15.83,25.66-2.82,4.89-2.22,12.92-3.49,18.63-1.47,7-3.49,13.88-6.03,20.57-.53,1.33-1.36,2.91-2.8,2.96-.67-.09-1.34-.22-2-.38-.64.07-1.29.07-1.93,0-1.65-.38-1.65-2.71-1.27-4.45,1.8-7.94,2.89-16.03,3.25-24.17.27-6.27-1.42-12.92.36-19.01,1.4-4.8,9.81-30.6,9.81-30.6l11.79-7.56Z"/><path class="cls-26_progress-14" d="M422.41,405.18c-.53.18-1.03.45-1.47.8-.45.36-.65.95-.51,1.51.23.51.71.87,1.27.96.53.11,1.09,0,1.62.22.49.16.99.3,1.49.4.82-.07,1.6-.39,2.22-.93,3.07-2.06,6.48-3.56,10.07-4.45.35-.07.69-.19,1.02-.33.88-.66,1.37-1.72,1.29-2.82-.09-2.33-.7-4.61-1.8-6.67-.09-.25-.23-.47-.42-.64-.2-.12-.43-.19-.67-.2-3.87-.42-4.45,3.47-6.27,5.94-2.03,2.72-4.74,4.86-7.85,6.23Z"/><path class="cls-27_progress-14 targetColor" d="M434.11,314.21c2.99.44,5.77,1.79,7.96,3.87,4.74,4.02,4.45,12.25,2.8,18.28-.84,3.16-5.87,13.1-6.67,15.92-1.4,5.34,1.4,11.96,1.65,17.37.31,7.15.07,14.32-.73,21.44-.16,1.42-.58,3.14-1.96,3.56-.67.18-1.38,0-2.05.13-.59.24-1.21.42-1.85.53-1.69,0-2.22-2.22-2.22-3.89-.24-8.15-1.2-16.26-2.87-24.24-1.29-6.14-4.6-12.16-4.45-18.5l.47-15.57c.18-5.74-.62-11.54,1.13-17.06.14-.67.5-1.27,1.02-1.71.5-.29,1.07-.45,1.65-.44,1.7-.13,3.41-.13,5.11,0l1,.31Z" style="fill: rgb(178, 41, 13);"/><path class="cls-26_progress-14" d="M425.92,256.13c-.42.71-1.31,1.13-1.6,1.93s.33,1.96.67,2.91c.49,1.33.33,2.85.8,4.18.08.29.24.55.47.76.21.14.46.24.71.27,1,.23,2.03.29,3.05.18.19-.06.39-.06.58,0,.15.13.24.31.27.51.58,2.55.53,5.19-.13,7.72-.2.82-.44,1.85.18,2.45.22.2.49.33.78.38,2.01.16,3.94-.78,5.07-2.45,1.15-1.36,2.15-2.86,2.96-4.45.25-.44.42-.91.51-1.4.04-.65-.05-1.3-.27-1.91-.54-2.1-.87-4.24-.98-6.4.12-2.78-.22-5.56-1.02-8.23-.3-.9-.89-1.68-1.67-2.22-.94-.43-1.98-.6-3-.47-2.03-.15-4.04.5-5.58,1.82-.4.67-1.25,3.51-1.78,4.42Z"/><path class="cls-25_progress-14" d="M440.07,269.47s-8.29,4.29-10.81,7.65-6.67,5.85-5.03,12.23c1.29,5.16-.11,9.96-.18,15.08,0,1.4.6,2.53.58,3.96,0,2.49-2.22,4.69-1.38,7.27.64,2.11,3.09,3.02,5.23,3.62l8.34,2.42c1.79.76,3.8.81,5.63.13,2.09-1.16,2.56-3.94,2.76-6.32.49-6.16.31-13.56,2.85-19.32,1.56-3.27,2.09-6.94,1.51-10.52-.53-4.67-2.56-17.03-9.49-16.21Z"/><path class="cls-24_progress-14" d="M428.59,251.66c.17,1.37.82,2.63,1.85,3.56.98.91,2.22,1.53,3.2,2.42,1.1.82,1.71,2.14,1.62,3.51.81-.36,1.76-.07,2.22.69.23.51.14,1.11-.22,1.53-.37.4-.9.62-1.45.6,1.05.42,1.95,1.15,2.58,2.09.71,1.05,1.07,2.22,1.71,3.4.81,1.1,1.81,2.04,2.96,2.78.53.35.98.82,1.29,1.38.24.83.53,1.65.87,2.45.74,1.05,1.53,2.05,2.38,3,1.13,1.67,1.77,3.61,1.87,5.63-.06-.6-.06-1.2,0-1.8.2-.36.4-.71.58-1.07.33-.65.58-1.34.76-2.05.24-1.62.29-3.26.13-4.89,0-3.49,3.29-10.07.64-13.07-1.06-.87-2.18-1.67-3.36-2.38-2.22-1.93-2.67-5.34-4.14-7.98-1.31-2.35-3.52-4.07-6.11-4.78-3.54-.96-9.81.13-9.38,4.98Z"/><path class="cls-25_progress-14" d="M439.8,274.88s-14.92,2.4-16.32,2.02-1.4,12.36-1.4,12.36c0,0,15.57-.47,20.59-3.71,5.03-3.25,4.05-9.9-2.87-10.67Z"/><path class="cls-26_progress-14" d="M423.77,288.33c-2.71,1.07-5.77-.26-6.84-2.97,0-.01,0-.02-.01-.03l-11.94-21.84c0-1.91-1.09-4-.49-5.8.31-.87.93-1.58,1.25-2.42.4-1.11.4-2.33,0-3.45-.44-1.08-.99-2.11-1.65-3.07.25-.68.96-1.07,1.67-.91.67.18,1.28.56,1.73,1.09,2.05,2.13,3.17,4.98,3.11,7.94-.13.89-.13,1.8,0,2.69.19.61.47,1.18.84,1.69,3.82,6.09,8.63,11.5,12.45,17.59.97,1.39,1.65,2.95,2,4.6.1,1.88-.69,3.69-2.13,4.89Z"/><path class="cls-27_progress-14 targetColor" d="M434.48,403.16l-.64.18c-1.46.35-2.95.6-4.45.73-.28.08-.57.08-.84,0-.36-.22-.6-.6-.64-1.02-.04-.42-.12-.83-.24-1.22-.02-.08-.08-.16-.16-.2-.07-.02-.15-.02-.22,0-1.16.2-2.25.67-3.18,1.38-1.92,1.15-3.47,2.83-4.45,4.85-.08.17-.12.36-.11.56.05.16.13.3.24.42,1.65,1.93,4.94.96,6.94.22s4.31-1.96,6.67-2.65,5.27-.96,7.29-2.6c.33-.24.6-.56.78-.93.23-1.34-.31-2.69-1.4-3.49-.09-.09-.21-.15-.33-.18-.17,0-.33.07-.44.2-.98.8-1.51,2.02-2.47,2.82-.7.48-1.5.8-2.33.93Z" style="fill: rgb(178, 41, 13);"/></g></svg>