<svg id="_0017_receptionist" xmlns="http://www.w3.org/2000/svg" xmlns:xlink="http://www.w3.org/1999/xlink" viewBox="0 0 500 500" data-imageid="receptionist-45" imageName="Receptionist" class="illustrations_image" style="width: 166px;"><defs><style>.cls-1_receptionist-45{fill:url(#linear-gradient);}.cls-1_receptionist-45,.cls-2_receptionist-45,.cls-3_receptionist-45,.cls-4_receptionist-45,.cls-5_receptionist-45,.cls-6_receptionist-45,.cls-7_receptionist-45,.cls-8_receptionist-45,.cls-9_receptionist-45,.cls-10_receptionist-45,.cls-11_receptionist-45,.cls-12_receptionist-45,.cls-13_receptionist-45,.cls-14_receptionist-45,.cls-15_receptionist-45,.cls-16_receptionist-45,.cls-17_receptionist-45,.cls-18_receptionist-45,.cls-19_receptionist-45,.cls-20_receptionist-45,.cls-21_receptionist-45,.cls-22_receptionist-45,.cls-23_receptionist-45,.cls-24_receptionist-45,.cls-25_receptionist-45,.cls-26_receptionist-45{stroke-width:0px;}.cls-2_receptionist-45{isolation:isolate;opacity:.18;}.cls-2_receptionist-45,.cls-26_receptionist-45{fill:#68e1fd;}.cls-3_receptionist-45{fill:url(#linear-gradient-11-receptionist-45);}.cls-4_receptionist-45{fill:url(#linear-gradient-12-receptionist-45);}.cls-5_receptionist-45{fill:url(#linear-gradient-13-receptionist-45);}.cls-6_receptionist-45{fill:url(#linear-gradient-10-receptionist-45);}.cls-7_receptionist-45{fill:url(#linear-gradient-17-receptionist-45);}.cls-8_receptionist-45{fill:url(#linear-gradient-16-receptionist-45);}.cls-9_receptionist-45{fill:url(#linear-gradient-19-receptionist-45);}.cls-10_receptionist-45{fill:url(#linear-gradient-15-receptionist-45);}.cls-11_receptionist-45{fill:url(#linear-gradient-21-receptionist-45);}.cls-12_receptionist-45{fill:url(#linear-gradient-18-receptionist-45);}.cls-13_receptionist-45{fill:url(#linear-gradient-14-receptionist-45);}.cls-14_receptionist-45{fill:url(#linear-gradient-20-receptionist-45);}.cls-15_receptionist-45{fill:url(#linear-gradient-4-receptionist-45);}.cls-16_receptionist-45{fill:url(#linear-gradient-2-receptionist-45);}.cls-17_receptionist-45{fill:url(#linear-gradient-3-receptionist-45);}.cls-18_receptionist-45{fill:url(#linear-gradient-8-receptionist-45);}.cls-19_receptionist-45{fill:url(#linear-gradient-9-receptionist-45);}.cls-20_receptionist-45{fill:url(#linear-gradient-7-receptionist-45);}.cls-21_receptionist-45{fill:url(#linear-gradient-5-receptionist-45);}.cls-22_receptionist-45{fill:url(#linear-gradient-6-receptionist-45);}.cls-23_receptionist-45{fill:#231f20;}.cls-24_receptionist-45{fill:#fff;}.cls-25_receptionist-45{fill:#ffaa71;}</style><linearGradient id="linear-gradient-receptionist-45" x1="-232.19" y1="-576.18" x2="-378.77" y2="-554.23" gradientTransform="translate(409 940.5)" gradientUnits="userSpaceOnUse"><stop offset="0" stop-color="#231f20" stop-opacity="0"/><stop offset="1" stop-color="#231f20"/></linearGradient><linearGradient id="linear-gradient-2-receptionist-45" x1="-131.37" y1="-620.13" x2="-126.27" y2="-542.53" gradientTransform="translate(409.01 940.51)" xlink:href="#linear-gradient-receptionist-45"/><linearGradient id="linear-gradient-3-receptionist-45" x1="-113.75" y1="-719.2" x2="-107.88" y2="-611.03" xlink:href="#linear-gradient-receptionist-45"/><linearGradient id="linear-gradient-4-receptionist-45" x1="-62.41" y1="194.7" x2="-86.13" y2="137.57" gradientTransform="translate(325.66 363.33) scale(1 -1)" gradientUnits="userSpaceOnUse"><stop offset="0" stop-color="#ecc4d7"/><stop offset=".27" stop-color="#ecc6d6"/><stop offset=".37" stop-color="#eecdd4"/><stop offset=".42" stop-color="#efd4d1"/><stop offset="1" stop-color="#f2eac9"/></linearGradient><linearGradient id="linear-gradient-5-receptionist-45" x1="-166.2" y1="-703.1" x2="-207.22" y2="-678.02" gradientTransform="translate(409.01 940.51)" xlink:href="#linear-gradient-receptionist-45"/><linearGradient id="linear-gradient-6-receptionist-45" x1="-131.15" y1="-681.83" x2="-148.68" y2="-673.69" xlink:href="#linear-gradient-receptionist-45"/><linearGradient id="linear-gradient-7-receptionist-45" x1="-46.79" y1="-710.69" x2="-269.87" y2="-690.97" xlink:href="#linear-gradient-receptionist-45"/><linearGradient id="linear-gradient-8-receptionist-45" x1="-145.1" y1="-767" x2="-146.4" y2="-718.14" xlink:href="#linear-gradient-receptionist-45"/><linearGradient id="linear-gradient-9-receptionist-45" x1="-255.35" y1="-648.56" x2="-253" y2="-695.85" gradientTransform="translate(409 940.5)" gradientUnits="userSpaceOnUse"><stop offset="0" stop-color="#000"/><stop offset=".98" stop-color="#000" stop-opacity="0"/></linearGradient><linearGradient id="linear-gradient-10-receptionist-45" x1="-175.92" y1="110.22" x2="-174.25" y2="131.54" gradientTransform="translate(325.66 363.33) scale(1 -1)" xlink:href="#linear-gradient-9-receptionist-45"/><linearGradient id="linear-gradient-11-receptionist-45" x1="-279.7" y1="127" x2="-279.33" y2="117.81" gradientTransform="translate(409 365.03) scale(1 -1)" gradientUnits="userSpaceOnUse"><stop offset="0" stop-color="#68e1fd"/><stop offset=".34" stop-color="#68e1fd"/><stop offset="1" stop-color="#68e1fd"/></linearGradient><linearGradient id="linear-gradient-12-receptionist-45" x1="-239.7" y1="128.19" x2="-239.25" y2="117.3" xlink:href="#linear-gradient-11-receptionist-45"/><linearGradient id="linear-gradient-13-receptionist-45" x1="-175.03" y1="115.47" x2="-186.89" y2="95.36" gradientTransform="translate(325.66 363.33) scale(1 -1)" xlink:href="#linear-gradient-9-receptionist-45"/><linearGradient id="linear-gradient-14-receptionist-45" x1="-172.16" y1="113.77" x2="-184.01" y2="93.67" gradientTransform="translate(325.66 363.33) scale(1 -1)" xlink:href="#linear-gradient-9-receptionist-45"/><linearGradient id="linear-gradient-15-receptionist-45" x1="-169.35" y1="112.13" x2="-181.2" y2="92.02" gradientTransform="translate(325.66 363.33) scale(1 -1)" xlink:href="#linear-gradient-9-receptionist-45"/><linearGradient id="linear-gradient-16-receptionist-45" x1="-174.12" y1="114.94" x2="-185.97" y2="94.83" gradientTransform="translate(325.66 363.33) scale(1 -1)" xlink:href="#linear-gradient-9-receptionist-45"/><linearGradient id="linear-gradient-17-receptionist-45" x1="-171.25" y1="113.23" x2="-183.1" y2="93.12" gradientTransform="translate(325.66 363.33) scale(1 -1)" xlink:href="#linear-gradient-9-receptionist-45"/><linearGradient id="linear-gradient-18-receptionist-45" x1="-168.44" y1="111.59" x2="-180.29" y2="91.48" gradientTransform="translate(325.66 363.33) scale(1 -1)" xlink:href="#linear-gradient-9-receptionist-45"/><linearGradient id="linear-gradient-19-receptionist-45" x1="-173.02" y1="114.28" x2="-184.87" y2="94.17" gradientTransform="translate(325.66 363.33) scale(1 -1)" xlink:href="#linear-gradient-9-receptionist-45"/><linearGradient id="linear-gradient-20-receptionist-45" x1="-170.14" y1="112.58" x2="-181.99" y2="92.48" gradientTransform="translate(325.66 363.33) scale(1 -1)" xlink:href="#linear-gradient-9-receptionist-45"/><linearGradient id="linear-gradient-21-receptionist-45" x1="-167.33" y1="110.93" x2="-179.19" y2="90.83" gradientTransform="translate(325.66 363.33) scale(1 -1)" xlink:href="#linear-gradient-9-receptionist-45"/></defs><path id="background_receptionist-45" class="cls-2_receptionist-45 targetColor" d="M61.91,419.94c-3.48,1.02-7.82,3.66-6.58,7.08.58,1.64,2.3,2.55,3.88,3.26,13.39,6,28.01,8.75,42.67,8.01-9.22,1.14-17.82,5.22-24.53,11.64,20.96,4.58,42.6,4.71,64.03,4.8,54.51.2,109.03.21,163.55.04,33.66-.11,67.34-.29,100.98-1.74,22.78-.98,45.77-2.59,67.58-9.26,8.56-2.61,18.26-7.74,18.9-16.7l-20.74-6.15c-1.35-.4-2.87-.95-3.4-2.27-.97-2.44,2.3-4.55,2.6-7.16.39-3.48-4.18-5.07-7.61-5.39-40.2-3.73-80.65.48-121,2.09-50.03,1.95-100.1-.16-150.04-3.27-44.67-2.79-86.93,2.3-130.3,15.02Z" style="fill: rgb(178, 41, 13);"/><g id="table_receptionist-45"><path class="cls-26_receptionist-45 targetColor" d="M451.9,288.23l-7.02,54.38-1.68,12.81-7.37,56.72c0,7.42-6.02,13.44-13.45,13.44H135.35c-7.41-.02-13.4-6.03-13.4-13.44l-6.96-56.72-1.57-12.8-6.78-54.38c0-7.43,6.02-13.45,13.45-13.45,0,0,.01,0,.02,0h318.36c7.42,0,13.44,6.02,13.44,13.45Z" style="fill: rgb(178, 41, 13);"/><path class="cls-1_receptionist-45" d="M451.9,288.23l-7.02,54.38-1.68,12.81-7.37,56.72c0,7.42-6.02,13.44-13.45,13.44H135.35c-7.41-.02-13.4-6.03-13.4-13.44l-6.96-56.72-1.57-12.8-6.78-54.38c0-7.43,6.02-13.45,13.45-13.45,0,0,.01,0,.02,0h318.36c7.42,0,13.44,6.02,13.44,13.45Z"/><path class="cls-26_receptionist-45 targetColor" d="M451.9,288.23l-7.02,54.38-1.68,12.81-7.37,56.72c0,7.42-6.02,13.44-13.45,13.44h-241.56c-7.4-.03-13.39-6.04-13.4-13.44l-6.96-56.72-1.59-12.8-6.69-54.38c0-7.42,6.02-13.44,13.44-13.45h272.82c7.43,0,13.45,6.01,13.45,13.44h0Z" style="fill: rgb(178, 41, 13);"/><polygon class="cls-16_receptionist-45" points="444.86 342.61 443.2 355.42 114.91 355.42 113.35 342.61 444.86 342.61"/></g><g id="graphic_receptionist-45"><path class="cls-26_receptionist-45 targetColor" d="M173.97,135.82H39.36V40.63h134.6v95.19ZM46.46,128.72h120.4V47.73H46.46v81Z" style="fill: rgb(178, 41, 13);"/><rect class="cls-26_receptionist-45 targetColor" x="71.77" y="69.06" width="10.89" height="43.8" style="fill: rgb(178, 41, 13);"/><rect class="cls-26_receptionist-45 targetColor" x="90.3" y="92.89" width="10.89" height="19.97" style="fill: rgb(178, 41, 13);"/><rect class="cls-26_receptionist-45 targetColor" x="108.8" y="80.33" width="10.89" height="32.52" style="fill: rgb(178, 41, 13);"/><rect class="cls-26_receptionist-45 targetColor" x="127.32" y="69.06" width="10.89" height="43.8" style="fill: rgb(178, 41, 13);"/><rect class="cls-26_receptionist-45 targetColor" x="66.7" y="112.86" width="78.78" height="2.18" style="fill: rgb(178, 41, 13);"/></g><g id="clock_receptionist-45"><circle class="cls-26_receptionist-45 targetColor" cx="414.96" cy="90.93" r="41.34" transform="translate(253.41 483.82) rotate(-80.01)" style="fill: rgb(178, 41, 13);"/><circle class="cls-24_receptionist-45" cx="414.96" cy="90.93" r="30.5"/><path class="cls-23_receptionist-45" d="M433.17,94.98h-19.94c-.91,0-1.66-.74-1.66-1.65h0c0-.92.73-1.67,1.65-1.68h19.95c.92,0,1.66.74,1.66,1.66h0c0,.91-.73,1.66-1.64,1.67h-.02Z"/><path class="cls-23_receptionist-45" d="M414.89,73.35v19.97c0,.91-.74,1.65-1.66,1.66h0c-.91,0-1.66-.74-1.66-1.65h0v-19.98c0-.92.75-1.66,1.66-1.66h0c.91,0,1.65.74,1.66,1.66Z"/></g><path class="cls-26_receptionist-45 targetColor" d="M386.52,206.02l3.29-1.97c2.15-1.29,4.92-.78,6.47,1.19,2.04,2.58,4.32,6.35,3.98,9.96-.61,6.38-6.96,6.7-6.96,6.7,0,0-8.09-7.37-6.77-15.88Z" style="fill: rgb(178, 41, 13);"/><g id="character_receptionist-45"><path class="cls-23_receptionist-45" d="M224.86,124.53c-1.39,12.3,3.39,25.39-1.39,36.79-1.25,2.98-2.92,6.96-.39,8.94.86.59,1.88.92,2.92.95,4.49.38,8.94-1.16,12.24-4.23.27,1.78,2.22,2.9,4.03,2.94s3.53-.7,5.25-1.25c8.83-2.85,18.39-1.17,27.55.3,4.25.7,8.97,1.21,12.53-1.22,7.18,3.29,15.46,3.2,22.57-.24-.99-3.89-4.59-6.56-6.26-10.21-1.27-2.78-1.34-5.94-1.39-8.99-.11-6.09-.22-12.18-.33-18.27-.13-7.24-.35-14.82-3.91-21.12-3.14-5.57-7.29-21.64-34.28-21.64-30.85-.03-38.07,27.73-39.14,37.24Z"/><path class="cls-25_receptionist-45" d="M237.98,140.56c.85,3.36,3.6,6.01,6.74,7.5,3.14,1.49,6.64,1.98,10.09,2.3,9.66.9,19.81.5,28.43-3.97,3.33-1.73,6.73-4.96,5.89-8.62-.16-.95-.78-1.76-1.66-2.16-.58-.17-1.19-.2-1.78-.08-9.49,1-19.01,2.3-28.58,1.96-4.51-.17-9.44-.47-13.75-1.97-1.64-.57-2.28-1.5-3.99-.35s-1.84,3.61-1.38,5.4Z"/><path class="cls-23_receptionist-45" d="M237.92,110.43c-1.51,1.24-2.56,2.96-2.96,4.87-.4,1.9-.5,3.85-.3,5.78.08,1.88.42,3.74,1.04,5.51.78,1.86,1.8,3.6,3.03,5.2.99,1.39,1.99,2.78,3,4.18.77-2.22,2.22-4.18,3.02-6.35.5-1.65.9-3.33,1.2-5.02.65-2.87,1.76-5.64,2.09-8.57.2-1.89.58-6.67-1.85-7.2-2.6-.57-6.15.02-8.26,1.61Z"/><path class="cls-26_receptionist-45 targetColor" d="M212.2,274.79c-9.91,0-17.94-8.03-17.94-17.93,0-1.4.16-2.79.49-4.16l11.54-48.45s5.35-23.73,21.44-26.79l68.28-.21s13.05-1.22,21.28,19.11c2.01,4.98,20.11,30.47,27.14,27.6l39.67-17.79s3.15-3.48,7.14.86c3.99,4.34,13.77,10.8-1.82,21.29-20.18,13.59-49.73,23.46-49.73,23.46,0,0-5.51,2.51-12.38-2.51-6.87-5.02-14.49-10.14-14.49-10.14l-11.65,35.67h-88.97Z" style="fill: rgb(178, 41, 13);"/><path class="cls-17_receptionist-45" d="M389.44,228.31c-20.18,13.59-49.73,23.46-49.73,23.46,0,0-5.51,2.51-12.38-2.51s-14.49-10.14-14.49-10.14l-11.65,35.67h-88.99c-9.91,0-17.94-8.03-17.94-17.93,0-1.4.16-2.79.49-4.16l11.54-48.45s5.35-23.73,21.44-26.79l68.28-.21s13.05-1.22,21.28,19.11c2.01,4.98,20.11,30.47,27.14,27.6l39.67-17.79s3.15-3.48,7.14.86c1.88,2.05,5.05,4.56,6.26,7.75,1.32,3.58.17,8-8.07,13.54Z"/><path class="cls-25_receptionist-45" d="M274.69,259.25c3.27-.89,6.63-1.44,10.02-1.64,3.39-.07,6.89.63,9.67,2.57-.28.75-1,1.26-1.8,1.27,2.87.1,5.57,1.25,8.21,2.36l7.53,3.2c.22.08.42.2.58.35.58.64-.2,1.68-1.05,1.89s-1.8.05-2.55.49c1.14-.28,2.35.08,3.16.93-5.12,3.73-11.92,3.91-18.26,3.93-6.06,0-12.11,0-18.16-.31-.77.07-1.54-.18-2.12-.7-.38-.63-.49-1.37-.33-2.09.31-3.02.47-6.09.93-9.09.37-2.32,1.7-3.19,4.18-3.19Z"/><path class="cls-25_receptionist-45" d="M398.78,202.02l12.42-6.55c0,1.92-1.13,3.66-2.89,4.43,4.98-1.08,10.08-2.21,14.33-5.02.9-.6,2.03-1.29,2.97-.75-.59,1.8-1.62,3.42-3.01,4.7l2.09-1.65c.29.58-.09,1.25-.47,1.77-1.17,1.62-2.47,3.14-3.89,4.54.61-.36,1.3-.55,2-.54-.45.95-.99,1.86-1.6,2.71-5.53,7.68-14.83,11.69-24.21,10.44-.57-.05-1.13-.22-1.64-.48-.56-.36-1.02-.87-1.32-1.46-1.36-2.44-1.44-5.39-.23-7.9.97-1.93,3.61-3.26,5.44-4.24Z"/><path class="cls-25_receptionist-45" d="M248.46,181.56c3.75,3.1,7.7,6.04,12.21,7.89s9.63,2.53,14.25,1.04c6.26-2.03,10.59-7.55,14.45-12.85-3.76-.53-7.07-2.92-9.35-5.96s-3.64-6.65-4.66-10.3c-.58-2.09-1.11-4.29-2.49-5.97-1.61-1.94-4.18-2.88-6.65-3.29-1.96-.41-3.99-.24-5.85.49-3.87,1.76-5.11,6.49-6.79,10.4-1.74,4.02-4.36,7.61-7.66,10.5-1.32,1.16-4.03,2.17-3.25,3.91.57,1.29,4.63,3.17,5.8,4.13Z"/><path class="cls-15_receptionist-45" d="M253.57,163.02s2.69,11.92,12.37,11.74c9.69-.18,10.44-10.18,10.44-10.18l-22.81-1.56Z"/><path class="cls-25_receptionist-45" d="M248.16,153.16c2.46,5.16,5.57,10.06,9.92,13.22,25.06,18.35,31.63-42.95,30.82-45.83-1.02-3.65-2.09-7.42-4.36-10.24-1.77-2.07-4-3.7-6.51-4.75-7.05-3.2-15.02-3.7-22.41-1.39-2.37.66-4.59,1.77-6.55,3.27-3.1,2.5-5.21,6.38-6.4,10.44-3.61,12.22.38,24.57,5.5,35.28Z"/><path class="cls-23_receptionist-45" d="M262.98,109.26c7.75,3.68,9.4,15.17,17.31,18.49,1.69.66,3.48,1.01,5.3,1.04,2.44.1,4.89-.14,7.27-.7-.7-7.35,1.22-15.02-1.11-22.03-1.71-5.15-5.91-9.01-10.44-11.95-2.87-1.86-9.66-3.23-15.75-3.17-5.09,0-10.04,1.71-14.03,4.87-3.89,3.2-6.33,8.42-5.33,13.36,3.07-.81,5.88-.61,8.98-.7,2.79-.03,5.1-.52,7.81.77Z"/><polygon class="cls-21_receptionist-45" points="233.28 218.5 224.79 252.28 255.86 254.17 233.28 218.5"/><path class="cls-26_receptionist-45 targetColor" d="M267.1,257.43c1.46,2.17,1.85,4.93,1.67,7.54-.29,2.61-.76,5.19-1.39,7.74-.15.7-.2,1.59.4,1.97.59.24,1.26.11,1.71-.34,2.21-1.7,2.74-4.75,3.12-7.51.27-2.01.52-4.18-.38-5.97-.77-1.56-2.25-2.62-3.67-3.61-1.91-1.33-3.95-2.78-6.26-3.26,1.8,1.01,3.58,1.64,4.8,3.45Z" style="fill: rgb(178, 41, 13);"/><path class="cls-22_receptionist-45" d="M267.1,257.43c1.46,2.17,1.85,4.93,1.67,7.54-.29,2.61-.76,5.19-1.39,7.74-.15.7-.2,1.59.4,1.97.59.24,1.26.11,1.71-.34,2.21-1.7,2.74-4.75,3.12-7.51.27-2.01.52-4.18-.38-5.97-.77-1.56-2.25-2.62-3.67-3.61-1.91-1.33-3.95-2.78-6.26-3.26,1.8,1.01,3.58,1.64,4.8,3.45Z"/><path class="cls-20_receptionist-45" d="M389.44,228.31c-20.18,13.59-49.73,23.46-49.73,23.46,0,0-5.51,2.51-12.38-2.51s-14.49-10.14-14.49-10.14c0,0,2.55-10.11-4.5-24.87,0,0,19.98,25.64,24.3,26.93,19.66,5.89,60.95-27.02,60.95-27.02l3.91.61c1.32,3.58.17,8-8.06,13.54Z"/><path class="cls-26_receptionist-45 targetColor" d="M237.02,177.23l8.92-3.72s18.65,24.01,29.62,14.87c10.98-9.15,10.58-13.62,10.58-13.62l4.44,2.64s-2.22,16.33-16.98,16.7c-14.76.37-36.57-16.87-36.57-16.87Z" style="fill: rgb(178, 41, 13);"/><path class="cls-18_receptionist-45" d="M237.02,177.23l8.92-3.72s18.65,24.01,29.62,14.87c10.98-9.15,10.58-13.62,10.58-13.62l4.44,2.64s-5.85,18.39-20.61,18.79c-14.76.4-32.95-18.96-32.95-18.96Z"/></g><g id="telephone_receptionist-45"><rect class="cls-26_receptionist-45 targetColor" x="143.18" y="242.11" width="14.04" height="8.73" style="fill: rgb(178, 41, 13);"/><path class="cls-26_receptionist-45 targetColor" d="M174.38,266.92v7.86h-45.75v-7.86c0-8.88,7.18-16.09,16.06-16.1h13.62c8.88,0,16.08,7.2,16.08,16.08h0v.02Z" style="fill: rgb(178, 41, 13);"/><path class="cls-19_receptionist-45" d="M174.38,266.92v7.86h-39.44s-.61-5.09.85-12.95c1.45-7.86,11.14-11,11.14-11v-8.73h10.31v8.72h1.14c8.86.04,16.02,7.24,16.01,16.1Z"/><path class="cls-26_receptionist-45 targetColor" d="M175,238.74v6.77l-3.87-1.32-6.9-2.35v-2.66h-29.29v2.65l-5.06,1.73-5.71,1.93v-6.77c0-5.97,4.84-10.8,10.8-10.8h29.23c5.97,0,10.8,4.84,10.8,10.8h0Z" style="fill: rgb(178, 41, 13);"/><path class="cls-6_receptionist-45" d="M171.13,242.81v1.39l-6.9-2.35v-2.66h-29.29v2.65l-5.06,1.73v-.76c0-4.84,3.92-8.76,8.76-8.76h23.72c4.84,0,8.76,3.92,8.76,8.76h0Z"/><polygon class="cls-3_receptionist-45" points="134.94 241.86 134.94 243.55 124.17 247.08 124.17 245.52 134.94 241.86"/><path class="cls-26_receptionist-45 targetColor" d="M139.98,243.78c0,1.1-.69,2.09-1.73,2.46l-14.87,5.37c-1.36.49-2.86-.22-3.35-1.58,0,0,0,0,0,0h0v-.03l-.08-.27c-.47-1.36.26-2.84,1.61-3.31h0l2.62-.89,10.77-3.66,1.59-.54c1.35-.45,2.81.25,3.29,1.59.11.28.16.58.16.88Z" style="fill: rgb(178, 41, 13);"/><polygon class="cls-4_receptionist-45" points="175.01 245.52 175.01 247.08 164.22 243.55 164.22 241.86 175.01 245.52"/><path class="cls-26_receptionist-45 targetColor" d="M179.26,249.72l-.1.27c-.46,1.36-1.94,2.09-3.3,1.64,0,0,0,0,0,0h-.08l-14.89-5.37c-1.04-.37-1.73-1.36-1.72-2.46,0-.3.05-.6.15-.88.49-1.33,1.95-2.03,3.3-1.59l1.58.54,10.77,3.67,2.62.89c1.36.46,2.09,1.94,1.64,3.3,0,0,0,0,0,0h.03Z" style="fill: rgb(178, 41, 13);"/><path class="cls-26_receptionist-45 targetColor" d="M158.83,262.35h-15.65c-1.15,0-2.09-.93-2.09-2.09l2.66-5.9c0-1.15.93-2.09,2.09-2.09h9.29c1.15,0,2.09.93,2.09,2.09l3.69,5.9c0,1.15-.93,2.08-2.07,2.09Z" style="fill: rgb(178, 41, 13);"/><path class="cls-5_receptionist-45" d="M147.69,254.84h-1.55c-.38,0-.7-.31-.7-.7h0c0-.38.31-.7.7-.7h1.55c.38,0,.7.31.7.7h0c0,.38-.31.7-.7.7Z"/><path class="cls-13_receptionist-45" d="M151.53,254.84h-1.5c-.38,0-.7-.31-.7-.7h0c0-.38.31-.7.7-.7h1.55c.38,0,.7.31.7.7h0c0,.38-.31.7-.7.7h-.04Z"/><path class="cls-10_receptionist-45" d="M155.35,254.84h-1.55c-.38,0-.7-.31-.7-.7h0c0-.38.31-.7.7-.7h1.55c.38,0,.7.31.7.7h0c0,.38-.31.7-.7.7Z"/><path class="cls-8_receptionist-45" d="M147.69,256.93h-1.55c-.38,0-.7-.31-.7-.7h0c0-.38.31-.7.7-.7h1.55c.38,0,.7.31.7.7h0c0,.38-.31.7-.7.7Z"/><path class="cls-7_receptionist-45" d="M151.53,256.93h-1.5c-.38,0-.7-.31-.7-.7h0c0-.38.31-.7.7-.7h1.55c.38,0,.7.31.7.7h0c0,.38-.31.7-.7.7h-.04Z"/><path class="cls-12_receptionist-45" d="M155.35,256.93h-1.55c-.38,0-.7-.31-.7-.7h0c0-.38.31-.7.7-.7h1.55c.38,0,.7.31.7.7h0c0,.38-.31.7-.7.7Z"/><path class="cls-9_receptionist-45" d="M147.69,259.44h-1.55c-.38,0-.7-.31-.7-.7h0c.02-.37.32-.66.7-.66h1.55c.37,0,.68.29.7.66h0c0,.38-.31.7-.7.7Z"/><path class="cls-14_receptionist-45" d="M151.53,259.44h-1.5c-.38,0-.7-.31-.7-.7h0c.02-.37.32-.66.7-.66h1.55c.37,0,.68.29.7.66h0c0,.38-.31.7-.7.7h-.04Z"/><path class="cls-11_receptionist-45" d="M155.35,259.44h-1.55c-.38,0-.7-.31-.7-.7h0c.02-.37.32-.66.7-.66h1.55c.37,0,.68.29.7.66h0c0,.38-.31.7-.7.7Z"/></g></svg>