<svg id="_0572_team_success" xmlns="http://www.w3.org/2000/svg" viewBox="0 0 500 500" data-imageid="team-success-5-28" imageName="Team Success 5" class="illustrations_image" style="width: 166px;"><defs><style>.cls-1_team-success-5-28{fill:#fff;}.cls-2_team-success-5-28{fill:#f4a28c;}.cls-3_team-success-5-28{opacity:.46;}.cls-3_team-success-5-28,.cls-4_team-success-5-28,.cls-5_team-success-5-28,.cls-6_team-success-5-28,.cls-7_team-success-5-28,.cls-8_team-success-5-28{fill:none;}.cls-9_team-success-5-28{fill:#a5a5a5;}.cls-10_team-success-5-28{fill:#ce8172;}.cls-11_team-success-5-28{fill:#e6e6e6;}.cls-4_team-success-5-28{opacity:.03;}.cls-5_team-success-5-28{opacity:.09;}.cls-6_team-success-5-28{opacity:.08;}.cls-7_team-success-5-28{opacity:.5;}.cls-8_team-success-5-28{opacity:.31;}.cls-12_team-success-5-28{fill:#24285b;}.cls-13_team-success-5-28{fill:#000001;}.cls-14_team-success-5-28{fill:#ffd200;}.cls-15_team-success-5-28{fill:#68e1fd;}</style></defs><g id="confetti_team-success-5-28"><g class="cls-4_team-success-5-28"><ellipse class="cls-13_team-success-5-28" cx="250" cy="451.48" rx="231.58" ry="22.82"/></g><g class="cls-7_team-success-5-28"><rect class="cls-11_team-success-5-28" x="85.71" y="176.2" width="23.61" height="6.32" transform="translate(-77.47 74.2) rotate(-30.46)"/></g><g class="cls-7_team-success-5-28"><rect class="cls-11_team-success-5-28" x="236.9" y="34.08" width="23.61" height="6.32" transform="translate(15.45 131.23) rotate(-30.46)"/></g><g class="cls-7_team-success-5-28"><rect class="cls-11_team-success-5-28" x="340.2" y="163.51" width="23.61" height="6.32" transform="translate(734.81 238.43) rotate(165.28)"/></g><g class="cls-7_team-success-5-28"><rect class="cls-11_team-success-5-28" x="284.96" y="126.29" width="16.89" height="4.52" transform="translate(533.04 341.14) rotate(-162.08)"/></g><g class="cls-7_team-success-5-28"><rect class="cls-11_team-success-5-28" x="159.09" y="26.27" width="16.89" height="4.52" transform="translate(318.17 107.23) rotate(-162.08)"/></g><g class="cls-7_team-success-5-28"><rect class="cls-11_team-success-5-28" x="340.88" y="126.29" width="16.89" height="4.52" transform="translate(83.87 389.48) rotate(-64.71)"/></g><g class="cls-7_team-success-5-28"><rect class="cls-11_team-success-5-28" x="161.22" y="82.08" width="16.89" height="4.52" transform="translate(20.93 201.72) rotate(-64.71)"/></g><g class="cls-7_team-success-5-28"><rect class="cls-11_team-success-5-28" x="260.16" y="246.93" width="16.89" height="4.52" transform="translate(-71.45 385.6) rotate(-64.71)"/></g><g class="cls-7_team-success-5-28"><rect class="cls-11_team-success-5-28" x="401.85" y="82.08" width="16.89" height="4.52" transform="translate(158.77 419.29) rotate(-64.71)"/></g><g class="cls-7_team-success-5-28"><rect class="cls-11_team-success-5-28" x="394.3" y="142.29" width="16.89" height="4.52" transform="translate(781.91 342.9) rotate(-172.13)"/></g><g class="cls-7_team-success-5-28"><rect class="cls-11_team-success-5-28" x="124.11" y="148.69" width="16.89" height="4.52" transform="translate(219.71 331.94) rotate(-164.42)"/></g><g class="cls-7_team-success-5-28"><rect class="cls-11_team-success-5-28" x="119.39" y="70.42" width="16.89" height="4.52" transform="translate(231.46 177.01) rotate(-164.42)"/></g><g class="cls-7_team-success-5-28"><rect class="cls-11_team-success-5-28" x="347.81" y="87" width="16.89" height="4.52" transform="translate(675.47 270.91) rotate(-164.42)"/></g><g class="cls-7_team-success-5-28"><rect class="cls-11_team-success-5-28" x="178.51" y="111.65" width="16.89" height="4.52" transform="translate(392.89 188.19) rotate(168.48)"/></g><g class="cls-7_team-success-5-28"><rect class="cls-11_team-success-5-28" x="312.32" y="54.32" width="16.89" height="4.52" transform="translate(646.37 47.96) rotate(168.48)"/></g><g class="cls-7_team-success-5-28"><rect class="cls-11_team-success-5-28" x="96.62" y="116.09" width="16.89" height="4.52" transform="translate(231.64 213.34) rotate(168.48)"/></g></g><g id="growth_team-success-5-28"><polygon class="cls-9_team-success-5-28" points="492.33 165.01 420.95 269.04 417.94 245.63 208.57 383.9 203 315.97 45.24 409.71 26.54 362.94 244.35 248.42 250.72 309.9 412 199.46 409.53 180.35 492.33 165.01"/></g><g id="person1_team-success-5-28"><path class="cls-15_team-success-5-28 targetColor" d="m125.1,442.88s2.65,4.27,6.91,3.73c4.25-.54,6.22,3.31,2.69,5.18-3.53,1.87-14.25-.89-14.25-.89l-1.29-7.72,5.95-.3Z" style="fill: rgb(178, 41, 13);"/><path class="cls-2_team-success-5-28" d="m150.74,262.91s42.25-27.1,58.21-55.16l-5.38-5.91s-36.3,32.13-68.13,37.67l15.3,23.4Z"/><path class="cls-2_team-success-5-28" d="m208.95,207.75c.08.09,3.28-4.11,3.47-4.4,1.18-1.84,2.29-3.97,2.39-6.19.12-2.69-1.91-4.89-4.17-6.11-1.08-.59-2.58-.68-3.42.22-.32.34-.5.78-.66,1.22-.36.95-.65,1.92-.88,2.9-.17-.74-.42-1.46-.74-2.14-.13-.29-.32-.6-.63-.66-.3-.06-.59.16-.73.42s-.15.58-.17.88c-.08,1.67-.2,3.34-.24,5.02-.02.63.17,1.17.25,1.79.03.23,0,.95.16,1.13.01.01,5.38,5.91,5.38,5.91Z"/><path class="cls-15_team-success-5-28 targetColor" d="m93.48,274.73c15.32,5.23,40.29,7.9,66.95-13.24l-7.16-30.54s-42.89,5.93-63.73,23.57c-6.98,5.91-4.72,17.25,3.94,20.21Z" style="fill: rgb(178, 41, 13);"/><g class="cls-3_team-success-5-28"><path class="cls-1_team-success-5-28" d="m93.48,274.73c15.32,5.23,40.29,7.9,66.95-13.24l-7.16-30.54s-42.89,5.93-63.73,23.57c-6.98,5.91-4.72,17.25,3.94,20.21Z"/></g><path class="cls-2_team-success-5-28" d="m119.35,211.31s2.45,6.96,2.48,12c0,2.05-1.67,3.74-3.71,3.72-2.54-.03-5.97-.8-7.73-4.37l-3.74-5.69s-2.22-3.65,1.06-7.58c3.28-3.94,10.38-2.39,11.66,1.92Z"/><polygon class="cls-2_team-success-5-28" points="107.31 218.01 109.6 242.08 122.77 239.87 115.82 223.24 107.31 218.01"/><path class="cls-14_team-success-5-28" d="m117.66,212.06c-2.25.44-4.39,1.03-6.72,1.19,0,0,3.04,2.54,1.69,6.54-1.35,3.99-5.34,3.45-5.36,3.45-.22-.03-.71-3-.8-3.26-.43-1.23-1.1-2.61-2.5-2.93-.85-.19-1.78.03-2.58-.32-1.09-.46-1.51-2.03-.81-2.98.5-.67,1.45-1.13,1.42-1.97-.03-.73-.82-1.14-1.34-1.65-.99-.97-1.09-2.61-.56-3.9s1.56-2.3,2.61-3.21c.2-.17.41-.37.43-.63.03-.38-.35-.63-.6-.91-.62-.69-.53-1.81-.02-2.58s1.36-1.25,2.2-1.63c2.3-1.03,4.83-1.49,7.35-1.72,1.11-.1,2.26-.16,3.29.27s1.87,1.48,1.71,2.58c-.15,1.04-1.15,1.93-.95,2.97.21,1.07,1.54,1.47,2.64,1.48s2.34-.08,3.12.68c1.13,1.1.22,3.24-1.27,3.73-.28.09-.59.15-.81.36-.44.41-.25,1.16.09,1.65s.81.95.89,1.55c.19,1.39-1.99,1.04-2.77,1.19-.11.02-.23.04-.34.06Z"/><path class="cls-2_team-success-5-28" d="m113.34,219.39s-.76-2.74-2.77-1.99c-2.01.74-.93,4.71,1.97,4.35l.8-2.36Z"/><path class="cls-2_team-success-5-28" d="m120.67,215.78l2.7,2.24c.67.55.53,1.61-.25,1.98l-2.6,1.22.15-5.44Z"/><g class="cls-8_team-success-5-28"><path class="cls-10_team-success-5-28" d="m117.5,226.82s-2.51.13-4.82-1.41c0,0,1.29,4.23,7.08,7.25l-2.26-5.84Z"/></g><path class="cls-15_team-success-5-28 targetColor" d="m75.32,255.91c7.55-13.94,23.53-21.09,39.12-18.21l5.83,1.08s41.15,6.02,38.63,43.93c-2.52,37.91-23.94,65.04-23.94,65.04l-55.56-6.31s-20.99-54.28-4.08-85.52Z" style="fill: rgb(178, 41, 13);"/><path class="cls-12_team-success-5-28" d="m126.8,443.31l8.16-95.58-55.56-6.31-18.35,102.84h10.3l34.73-66.76c.4-3.5,11.14,66.76,11.14,66.76l9.58-.95Z"/><g class="cls-6_team-success-5-28"><path class="cls-13_team-success-5-28" d="m103.78,255.99s3.69,28.98-3.25,55.48c-6.94,26.5,0,32.37,0,32.37l-21.14-2.4s-4.63-11.76-5.47-17.71c-.84-5.95-.34-71.16,29.85-67.74Z"/></g><path class="cls-15_team-success-5-28 targetColor" d="m77.16,272.58c11.37,11.53,32.5,25.09,65.81,18.1l-4.26-36.82s-29.49-7.58-56.03-1.12c-8.89,2.16-11.94,13.32-5.52,19.84Z" style="fill: rgb(178, 41, 13);"/><g class="cls-3_team-success-5-28"><path class="cls-1_team-success-5-28" d="m77.16,272.58c11.37,11.53,32.5,25.09,65.81,18.1l-4.26-36.82s-29.49-7.58-56.03-1.12c-8.89,2.16-11.94,13.32-5.52,19.84Z"/></g><path class="cls-2_team-success-5-28" d="m142.56,287.21s49.9-5.34,76.74-23.3l-2.17-7.7s-46.84,12.5-77.78,3.22l3.22,27.77Z"/><path class="cls-2_team-success-5-28" d="m219.3,263.91c.08.27,6.48-3.28,6.89-3.58,1.44-1.07,2.88-2.42,3.49-4.15.69-1.94-.11-4.74-1.24-6.36-.56-.81-1.62-1.38-2.55-1.07-.53.18-.94.6-1.33,1.01-.92.98-1.82,1.97-2.71,2.98,0-.92-.12-1.84-.34-2.73-.05-.19-.14-.41-.33-.44-.12-.02-.23.05-.33.11-2.37,1.58-5.19,4.7-4.43,7.36.56,1.99,2.33,4.88,2.89,6.87Z"/><path class="cls-15_team-success-5-28 targetColor" d="m62.65,444.15s-2.65,4.27-6.91,3.73c-4.25-.54-6.22,3.31-2.69,5.18,3.53,1.87,14.25-.89,14.25-.89l1.29-7.72-5.95-.3Z" style="fill: rgb(178, 41, 13);"/></g><g id="person2_team-success-5-28"><polygon class="cls-11_team-success-5-28" points="473.56 241.16 472.58 241.79 473.32 240.6 473.56 241.16"/><path class="cls-2_team-success-5-28" d="m409.76,252.18c4.48,6.18,1.59,14.86-5.64,17.3-7.91,2.67-20.55,4.6-37.69,0-31.19-8.37-42.07-60.3-42.07-60.3,0,0-5.87-8.74-1.48-12.48,4.39-3.74,7.97,9.93,7.97,9.93,0,0,6.45,24.89,29.74,33.98,18.92,7.39,40.12-.91,49.17,11.57Z"/><g class="cls-5_team-success-5-28"><path class="cls-13_team-success-5-28" d="m409.76,252.18c4.48,6.18,1.59,14.86-5.64,17.3-7.91,2.67-20.55,4.6-37.69,0-31.19-8.37-42.07-60.3-42.07-60.3,0,0-5.87-8.74-1.48-12.48,4.39-3.74,7.97,9.93,7.97,9.93,0,0,6.45,24.89,29.74,33.98,18.92,7.39,40.12-.91,49.17,11.57Z"/></g><polygon class="cls-2_team-success-5-28" points="417.55 362.66 387.34 443.05 381.4 442.71 391.77 358.67 417.55 362.66"/><path class="cls-2_team-success-5-28" d="m438.67,353.88l-7.04,33.1,23.16-16.16,3.97,5.21s-23.86,34.41-41.19,29.32c-17.33-5.09-3.23-58.66-3.23-58.66l24.33,7.18Z"/><polygon class="cls-2_team-success-5-28" points="409.33 215.58 415.44 243.01 400.08 245.29 401.8 224.42 409.33 215.58"/><g class="cls-8_team-success-5-28"><path class="cls-10_team-success-5-28" d="m401.23,228.97s2.82-.76,4.83-3.29c0,0,.09,5.14-5.23,10.55l.4-7.26Z"/></g><path class="cls-2_team-success-5-28" d="m393.57,215.47s.27,8.57,2.37,14.04c.85,2.22,3.38,3.34,5.59,2.46,2.74-1.1,6.13-3.38,6.54-7.99l1.66-7.74s.87-4.89-4.34-7.77c-5.21-2.88-12.25,1.78-11.82,6.99Z"/><path class="cls-2_team-success-5-28" d="m403.49,221.68s-.33-3.29,2.17-3.33,2.99,4.7-.3,5.54l-1.87-2.22Z"/><path class="cls-2_team-success-5-28" d="m394.02,220.86l-1.98,3.56c-.49.88.1,1.97,1.11,2.04l3.33.22-2.45-5.82Z"/><path class="cls-15_team-success-5-28 targetColor" d="m400.08,245.29s-37.37,14.09-27.21,39.82c7.36,18.64,17.16,15.22,19.63,30.07l2.6,14.62,38.03-11.35s-4.47-21.4-2-35.6c2.47-14.2,9.99-49.55-31.05-37.57Z" style="fill: rgb(178, 41, 13);"/><g class="cls-5_team-success-5-28"><path class="cls-13_team-success-5-28" d="m410.08,253.54s-14.5,20.34-1.71,41.1c2.17,3.52,4.07,7.2,5.92,10.9l8.07,16.15,10.77-3.21-1.49-8.99-21.56-55.94Z"/></g><path class="cls-14_team-success-5-28" d="m405.65,218.35s-6.61,26.5,2.25,30.09c8.86,3.59,23.28.5,23.67-10.45.39-10.95-10.45-12.11-12.69-27.04-2.23-14.93-30.77-9.75-29.84-1.12s16.61,8.52,16.61,8.52Z"/><path class="cls-12_team-success-5-28" d="m433.13,318.47l-38.03,11.35-7.09,44.68,50.97-.64s13.07-33.54-5.85-55.39Z"/><path class="cls-15_team-success-5-28 targetColor" d="m381.83,442.73s-3.52,3.97-7.7,3.52c-4.18-.44-5.14,5.45,1.65,5.22,2.59-.09,4.68-.38,6.28-.71,1.9-.39,3.83-.08,5.68.53.58.19,1.25.09,1.97-.66,2.04-2.14-2.36-7.59-2.36-7.59l-5.51-.32Z" style="fill: rgb(178, 41, 13);"/><path class="cls-15_team-success-5-28 targetColor" d="m458.22,376.15s5.3.18,7.62,3.69,7.47.48,2.97-4.6c-1.72-1.94-3.28-3.36-4.55-4.38-1.52-1.22-2.5-2.9-3.21-4.71-.22-.56-.73-1.02-1.76-1.1-2.95-.21-4.51,5.77-4.51,5.77l3.43,5.33Z" style="fill: rgb(178, 41, 13);"/><path class="cls-2_team-success-5-28" d="m423.36,249.9c7.36,2.03,10.52,10.62,6.39,17.04-4.52,7.02-13.19,16.42-29.45,23.52-29.59,12.92-70.5-20.87-70.5-20.87,0,0-10.04-3.17-8.94-8.83,1.09-5.66,12.43,2.78,12.43,2.78,0,0,20.57,15.42,44.44,8,19.39-6.03,30.78-25.75,45.64-21.64Z"/></g><g id="person3_team-success-5-28"><path class="cls-15_team-success-5-28 targetColor" d="m192.64,157.04c4.05,7.75,13.7,10.64,21.32,6.36,16.02-9,42.66-20.55,51.65-39.79,11.65-24.94-39.17-57.69-39.17-57.69l-7.34,8.34s65.86,41.46-16.93,57.72c-10.54,2.07-14.51,15.54-9.54,25.06h0Z" style="fill: rgb(178, 41, 13);"/><g class="cls-3_team-success-5-28"><path class="cls-1_team-success-5-28" d="m192.64,157.04c4.05,7.75,13.7,10.64,21.32,6.36,16.02-9,42.66-20.55,51.65-39.79,11.65-24.94-39.17-57.69-39.17-57.69l-7.34,8.34s65.86,41.46-16.93,57.72c-10.54,2.07-14.51,15.54-9.54,25.06h0Z"/></g><path class="cls-15_team-success-5-28 targetColor" d="m339.72,167.7s3.59-2.26,3.11-5.84c-.47-3.58,2.76-5.26,4.35-2.29s-.69,12.02-.69,12.02l-6.51,1.12-.27-5.01Z" style="fill: rgb(178, 41, 13);"/><path class="cls-15_team-success-5-28 targetColor" d="m344.93,243.37s3.95,1.54,6.54-.98,5.87-.91,4.44,2.13-10.06,6.61-10.06,6.61l-4.78-4.56,3.86-3.21Z" style="fill: rgb(178, 41, 13);"/><path class="cls-2_team-success-5-28" d="m163.38,126.05s5.87,4.31,8.69,8.4c1.14,1.66.72,3.97-.96,5.09-2.08,1.39-5.3,2.67-8.73.74l-6.21-2.55s-3.84-1.74-3.35-6.77c.49-5.03,7.12-7.72,10.57-4.92Z"/><polygon class="cls-2_team-success-5-28" points="157.3 138.2 172.54 156.54 182.05 147.42 167.14 137.74 157.3 138.2"/><path class="cls-12_team-success-5-28" d="m162.42,127.61c-.79,1-2.33,2.75-4.81,4.7,0,0,3.88.38,5.01,4.39,1.12,4.01-2.45,5.79-2.45,5.79l-6.95-6.25c-2.08-1.76-3.05-4.51-2.49-7.18.23-1.09.53-2.26.91-3.35.96-2.74,4.91-4.52,5.14-7.53.1-1.32,1.59-2.05,2.7-1.33,2.42,1.56,5.45,4.89,4.08,8.81-.25.72-.66,1.36-1.13,1.96Z"/><path class="cls-2_team-success-5-28" d="m162.97,135.97s-2.14-1.81-3.37-.08c-1.23,1.73,1.85,4.35,4.02,2.45l-.66-2.37Z"/><path class="cls-2_team-success-5-28" d="m166.94,128.95l3.44.32c.85.08,1.33,1.02.89,1.75l-1.44,2.44-2.9-4.52Z"/><g class="cls-8_team-success-5-28"><path class="cls-10_team-success-5-28" d="m170.49,139.72s-1.97,1.5-4.72,1.53c0,0,3.4,2.73,9.8,1.97l-5.08-3.5Z"/></g><path class="cls-15_team-success-5-28 targetColor" d="m172.54,156.54l6.47-6.21c1.58-1.51,3.08-3.1,4.47-4.79,4.44-5.41,19.03-20.25,40.55-13.2,26.09,8.54,41,59.17,41,59.17l-29.78,34.16s-103.33-19.27-62.71-69.13Z" style="fill: rgb(178, 41, 13);"/><path class="cls-2_team-success-5-28" d="m220.49,72.68s-11.54-5.16-12.45-10.03c-.92-4.87,8.9,2.61,8.9,2.61,0,0,4.6-8.7,9.5.66l-5.95,6.77Z"/><path class="cls-2_team-success-5-28" d="m217.8,66.79s-7.88-8.32-5.35-10.01c2.52-1.69,8.65,8.01,8.65,8.01l-3.3,2.01Z"/><path class="cls-12_team-success-5-28" d="m235.25,225.67s21.98,18.33,35.13,1.32c13.15-17.01,15.42-56.72,69.87-53.05l-.44-9.01s-42.75-16.67-76.99,20.01l-27.58,40.73Z"/><path class="cls-12_team-success-5-28" d="m252.82,233.06s41.95-29.12,84.43,16.46l7.68-6.15s-25.13-49.78-89.63-42.42l-2.48,32.11Z"/><g class="cls-6_team-success-5-28"><path class="cls-13_team-success-5-28" d="m194.2,167.96s9.88,4.96,16.12,23.49c6.24,18.53,38.47,14.21,38.47,14.21l-13.55,20.01s-33.42-7.07-51.46-18.64c-18.04-11.57,9.94-37.95,9.94-37.95l.47-1.12Z"/></g><path class="cls-15_team-success-5-28 targetColor" d="m172.69,196.03c24.46,10.36,79.57,24.34,91.47-52.92l-10.97-4.28s-21.79,51.76-64.61,28.11c-1.6-.88-3.22-1.71-4.93-2.39-7.61-3.01-26.57-8.73-26.34,9.14.13,9.8,6.35,18.51,15.37,22.33Z" style="fill: rgb(178, 41, 13);"/><g class="cls-3_team-success-5-28"><path class="cls-1_team-success-5-28" d="m172.69,196.03c24.46,10.36,79.57,24.34,91.47-52.92l-10.97-4.28s-21.79,51.76-64.61,28.11c-1.6-.88-3.22-1.71-4.93-2.39-7.61-3.01-26.57-8.73-26.34,9.14.13,9.8,6.35,18.51,15.37,22.33Z"/></g><path class="cls-2_team-success-5-28" d="m255.13,139.59s1.04-6.32,5.03-10.27c3.99-3.95,8.05-3.38,10.3-.26,2.25,3.12-7.69,8.21-7.69,8.21l-.2,5.22-7.43-2.9Z"/></g></svg>