<?xml version="1.0" encoding="utf-8"?>
<!-- Generator: Adobe Illustrator 17.0.0, SVG Export Plug-In . SVG Version: 6.00 Build 0)  -->
<!DOCTYPE svg PUBLIC "-//W3C//DTD SVG 1.1//EN" "http://www.w3.org/Graphics/SVG/1.1/DTD/svg11.dtd">
<svg version="1.1" id="Layer_1" xmlns="http://www.w3.org/2000/svg" xmlns:xlink="http://www.w3.org/1999/xlink" x="0px" y="0px"
	 width="454.5px" height="166.5px" viewBox="0 0 454.5 166.5" enable-background="new 0 0 454.5 166.5" xml:space="preserve">
<path fill="#BC2111" d="M291.932,46.664c-0.718,2.279-1.821,5.372-2.186,6.494c0.54-0.339,2.422-1.446,3.695-2.309
	c3.754-2.547,11.274-7.604,15.034-10.133s3.76-2.529,3.752-2.53s-0.023-0.003-4.924-0.776c-4.901-0.773-14.687-2.317-19.581-3.089
	c-2.502-0.394-4.374-0.704-4.971-0.794c0.161,0.15,0.734,0.676,1.277,1.141c1.182,1.012,4.812,3.909,5.974,4.893
	c-37.483,14.389-60.068,32.092-67.756,53.11c-10.164,33.259,10.834,45.658,52.483,35.187c-10.51,0.365-25.063,0.361-31.44-4.695
	C219.362,104.192,238.269,72.174,291.932,46.664z"/>
<path fill="none" stroke="#AF0004" stroke-width="0.216" stroke-miterlimit="22.9256" d="M291.932,46.664
	c-0.718,2.279-1.821,5.372-2.186,6.494c0.54-0.339,2.422-1.446,3.695-2.309c3.754-2.547,11.274-7.604,15.034-10.133
	s3.76-2.529,3.752-2.53s-0.023-0.003-4.924-0.776c-4.901-0.773-14.687-2.317-19.581-3.089c-2.502-0.394-4.374-0.704-4.971-0.794
	c0.161,0.15,0.734,0.676,1.277,1.141c1.182,1.012,4.812,3.909,5.974,4.893c-37.483,14.389-60.068,32.092-67.756,53.11
	c-10.164,33.259,10.834,45.658,52.483,35.187c-10.51,0.365-25.063,0.361-31.44-4.695C219.362,104.192,238.269,72.174,291.932,46.664
	z"/>
<path fill="#BC2111" d="M358.992,81.045c6.878-8.699,10.202-17.889,9.972-27.568c-1.659-20.597-22.361-27.744-62.104-21.44
	l14.548,2.97l-6.417,6.465c34.247-4.959,48.419,8.162,42.517,39.362L358.992,81.045z"/>
<path fill="#FFFFFF" d="M57.464,81.591l0.128,29.781h3.933c3.756,0,6.664-1.291,8.703-3.871c2.038-2.581,3.053-6.254,3.032-11.009
	c-0.021-4.755-1.066-8.429-3.137-11.019c-2.081-2.59-4.99-3.881-8.726-3.881L57.464,81.591L57.464,81.591z M46.191,116.865
	l-0.175-40.769h13.777c4.027,0,7.275,0.291,9.743,0.874c2.479,0.572,4.71,1.54,6.714,2.872c2.911,1.936,5.191,4.37,6.826,7.325
	c1.646,2.945,2.472,6.077,2.486,9.386c0.013,3.174-0.598,6.129-1.835,8.865c-1.247,2.726-3.037,5.088-5.391,7.086
	c-1.701,1.405-3.704,2.477-6.021,3.236c-2.317,0.749-4.802,1.124-7.466,1.124H46.191V116.865z M91.776,116.865L91.66,89.832h8.803
	l0.116,27.034L91.776,116.865L91.776,116.865z M91.425,78.729c-0.005-1.28,0.438-2.372,1.339-3.278
	c0.902-0.905,1.981-1.353,3.251-1.353c1.3,0,2.395,0.448,3.294,1.342c0.898,0.895,1.351,1.987,1.356,3.288
	c0.006,1.29-0.437,2.373-1.339,3.267c-0.902,0.895-1.992,1.342-3.272,1.342c-1.27,0-2.354-0.448-3.263-1.353
	C91.883,81.081,91.431,79.999,91.425,78.729z M108.758,116.865l-0.116-27.034h11.789c3.632,0,6.403,0.687,8.302,2.06
	c1.889,1.363,2.845,3.361,2.856,5.983c0.008,1.811-0.402,3.288-1.24,4.422c-0.838,1.134-2.104,1.936-3.788,2.404l7.981,12.164
	h-10.301l-6.194-12.737l-0.002-0.489c1.695-0.25,2.921-0.791,3.708-1.634c0.777-0.842,1.167-2.05,1.16-3.61
	c-0.007-1.582-0.429-2.789-1.264-3.6c-0.846-0.812-2.076-1.218-3.71-1.218c-0.239,0-0.437,0-0.582,0.011
	c-0.146,0.01-0.27,0.031-0.395,0.052l0.1,23.225h-8.304V116.865z M144.386,116.865c-2.091,0-3.571-0.458-4.439-1.384
	c-0.867-0.926-1.301-2.528-1.31-4.808l-0.063-14.651c-0.01-2.279,0.41-3.881,1.269-4.807c0.86-0.926,2.335-1.384,4.427-1.384h12.58
	l0.018,4.058h-6.691c-1.124,0-1.872,0.198-2.245,0.604c-0.373,0.405-0.556,1.217-0.551,2.414l0.019,4.412h8.491l0.018,4.058h-8.491
	l0.019,4.506c0.005,1.176,0.195,1.956,0.561,2.341s1.116,0.583,2.26,0.583h7.117l0.018,4.058
	C157.393,116.865,144.386,116.865,144.386,116.865z M186.843,110.133c-1.124,2.508-2.655,4.432-4.575,5.754
	c-1.93,1.322-4.175,1.978-6.734,1.978c-3.944,0-7.165-1.332-9.663-3.996c-2.499-2.664-3.762-6.118-3.78-10.364
	c-0.018-4.266,1.257-7.762,3.815-10.478c2.559-2.716,5.81-4.069,9.754-4.069c2.716,0,4.997,0.582,6.833,1.758
	c1.837,1.165,3.165,2.883,3.987,5.161l-3.81,2.195c-0.434-1.686-1.085-2.955-1.952-3.798c-0.867-0.842-1.941-1.259-3.2-1.259
	c-1.894,0-3.336,0.874-4.338,2.632c-1.002,1.759-1.49,4.318-1.476,7.669c0.015,3.6,0.453,6.212,1.314,7.846
	c0.86,1.633,2.227,2.455,4.1,2.455c1.384,0,2.641-0.499,3.781-1.488c1.14-0.988,1.957-2.331,2.459-4.006L186.843,110.133z
	 M196.35,116.865l-0.096-22.414h-7.242l-0.02-4.62h23.287l0.02,4.62h-7.242l0.096,22.414H196.35z"/>
<path fill="#FFFFFF" d="M267.383,97.321h11.339l-1.947-16.462L267.383,97.321z M249.582,116.738l26.926-45.94h12.429l5.67,45.94
	h-13.672l-1.545-13.578h-15.419l-7.858,13.578C256.113,116.738,249.582,116.738,249.582,116.738z M306.144,86.276h9.92
	l-4.513,18.585c-0.666,2.744-0.761,4.678-0.298,5.816c0.474,1.137,1.58,1.7,3.327,1.7c1.794,0,3.197-0.563,4.224-1.7
	c1.015-1.138,1.86-3.073,2.526-5.816l4.513-18.585h4.925l-4.786,19.711c-0.962,3.963-2.703,6.929-5.236,8.911
	s-5.856,2.967-9.972,2.967c-4.198,0-7.06-0.962-8.595-2.896c-1.535-1.935-1.806-4.925-0.821-8.981L306.144,86.276z M336.819,116.738
	l6.133-25.256h-8.161l1.264-5.206h26.241l-1.264,5.206h-8.161l-6.133,25.256C346.738,116.738,336.819,116.738,336.819,116.738z
	 M382.145,101.835c1.005-4.139,1.34-7.257,1.015-9.345c-0.34-2.075-1.354-3.118-3.053-3.118c-1.583,0-3.006,0.984-4.262,2.966
	c-1.266,1.981-2.379,4.971-3.353,8.982c-1.011,4.162-1.349,7.293-1.003,9.391c0.334,2.099,1.348,3.143,3.024,3.143
	c1.583,0,3.009-0.996,4.267-2.99C380.05,108.87,381.166,105.869,382.145,101.835z M373.398,117.864c-4.467,0-7.788-1.63-9.966-4.878
	c-2.187-3.259-2.688-7.328-1.498-12.229c1.136-4.678,3.463-8.419,6.987-11.244c3.521-2.814,7.65-4.221,12.387-4.221
	c4.444,0,7.742,1.63,9.914,4.902c2.175,3.259,2.662,7.339,1.471,12.241c-1.147,4.726-3.466,8.478-6.943,11.257
	C382.273,116.469,378.159,117.864,373.398,117.864z"/>
</svg>
