<?xml version="1.0" encoding="iso-8859-1"?>
<!-- Uploaded to: SVG Repo, www.svgrepo.com, Generator: SVG Repo Mixer Tools -->
<svg version="1.1" id="Layer_1" xmlns="http://www.w3.org/2000/svg" xmlns:xlink="http://www.w3.org/1999/xlink" 
	 viewBox="0 0 511.996 511.996" xml:space="preserve">
<circle style="fill:#797882;" cx="500.137" cy="253.325" r="11.859"/>
<path style="fill:#ACACB2;" d="M509.166,143.967c0-13.814-11.198-25.011-25.011-25.011s-25.011,11.197-25.011,25.011
	c0,4.904,1.417,9.474,3.856,13.335c-8.831,2.08-15.411,9.991-15.411,19.458c0,11.051,8.958,20.009,20.009,20.009
	c11.051,0,20.009-8.958,20.009-20.009c0-2.789-0.574-5.444-1.605-7.856C498.952,167.957,509.166,157.159,509.166,143.967z"/>
<circle style="fill:#8A8A91;" cx="438.365" cy="138.962" r="11.344"/>
<circle style="fill:#E1E1E3;" cx="463.153" cy="72.265" r="15.563"/>
<path style="fill:#263364;" d="M373.535,289.353c-2.748,0-5.534-0.68-8.104-2.113c-8.044-4.483-10.929-14.64-6.445-22.682
	l45.074-80.853c4.483-8.044,14.639-10.928,22.682-6.445s10.929,14.64,6.445,22.682l-45.074,80.853
	C385.064,286.268,379.385,289.353,373.535,289.353z"/>
<path style="fill:#67D1D3;" d="M352.429,273.704H53.893v-18.82c0-29.026,23.531-52.558,52.558-52.558h174.601
	C320.472,202.326,352.429,234.284,352.429,273.704L352.429,273.704z"/>
<g>
	<path style="fill:#263364;" d="M373.811,316.413H46.773c-5.29,0-10.267-2.511-13.41-6.765c-3.145-4.255-4.082-9.75-2.528-14.807
		l23.076-75.097c8.198-26.674,32.454-44.597,60.359-44.597h132.048c55.169,0,105.192,32.623,127.436,83.11l0,0l15.315,34.76
		c2.272,5.157,1.786,11.112-1.292,15.832C384.7,313.568,379.446,316.413,373.811,316.413z M69.34,283.065h278.903l-5.006-11.363
		c-16.918-38.396-54.96-63.206-96.919-63.206H114.269c-13.168,0-24.614,8.457-28.482,21.045L69.34,283.065z"/>
	<rect x="162.34" y="191.819" style="fill:#263364;" width="33.348" height="107.915"/>
</g>
<path style="fill:#3B6EAF;" d="M420.449,260.744H57.187c-21.198,0-38.444,17.247-38.444,38.444v92.831
	c0,9.209,7.466,16.674,16.674,16.674h417.184c9.209,0,16.674-7.466,16.674-16.674V309.57
	C469.275,282.647,447.372,260.744,420.449,260.744z"/>
<path style="fill:#5F98D1;" d="M244.009,260.744H57.187c-21.198,0-38.444,17.247-38.444,38.444v92.831
	c0,9.209,7.466,16.674,16.674,16.674h208.592V260.744z"/>
<circle style="fill:#1D1D1F;" cx="90.319" cy="402.203" r="53.086"/>
<path style="fill:#263364;" d="M242.391,321.293h-31.685c-5.141,0-9.31-4.169-9.31-9.31s4.169-9.31,9.31-9.31h31.685
	c5.141,0,9.31,4.169,9.31,9.31C251.7,317.126,247.532,321.293,242.391,321.293z"/>
<path style="fill:#F7DC4D;" d="M38.681,323.657H18.742c-6.446,0-11.672-5.226-11.672-11.672c0-6.446,5.226-11.672,11.672-11.672
	h19.939c6.446,0,11.672,5.226,11.672,11.672C50.353,318.431,45.127,323.657,38.681,323.657z"/>
<path style="fill:#797882;" d="M32.872,415.776H11.641C5.212,415.776,0,410.565,0,404.135V359.93c0-6.43,5.212-11.641,11.641-11.641
	h21.231c6.43,0,11.641,5.212,11.641,11.641v44.206C44.512,410.565,39.301,415.776,32.872,415.776z"/>
<path style="fill:#F7DC4D;" d="M449.444,334.718h-25.107v-42.574h25.107c3.53,0,6.392,2.861,6.392,6.392v29.79
	C455.836,331.857,452.974,334.718,449.444,334.718z"/>
<path style="fill:#DE3205;" d="M416.897,334.718h11.804v-42.574h-11.804c-3.149,0-5.703,2.553-5.703,5.703v31.168
	C411.194,332.165,413.747,334.718,416.897,334.718z"/>
<path style="fill:#2D5D92;" d="M332.61,285.314h-23.114c-8.198,0-14.844-6.646-14.844-14.844v-9.844
	c0-8.198,6.646-14.844,14.844-14.844h23.114c8.198,0,14.844,6.646,14.844,14.844v9.844
	C347.455,278.667,340.808,285.314,332.61,285.314z"/>
<path style="fill:#57565C;" d="M301.818,419.72H172.991c-5.88,0-10.648-4.768-10.648-10.648l0,0c0-5.88,4.768-10.648,10.648-10.648
	h128.827c5.88,0,10.648,4.768,10.648,10.648l0,0C312.467,414.952,307.699,419.72,301.818,419.72z"/>
<path style="fill:#8A8A91;" d="M22.257,348.289H11.642C5.212,348.289,0,353.5,0,359.93v44.206c0,6.43,5.212,11.641,11.641,11.641
	h10.615v-67.487H22.257z"/>
<path style="fill:#444547;" d="M37.231,402.207c0,29.319,23.767,53.086,53.086,53.086V349.12
	C60.999,349.12,37.231,372.888,37.231,402.207z"/>
<circle style="fill:#ACACB2;" cx="90.319" cy="402.203" r="20.176"/>
<path style="fill:#E1E1E3;" d="M70.143,402.207c0,11.142,9.032,20.174,20.174,20.174v-40.348
	C79.176,382.032,70.143,391.065,70.143,402.207z"/>
<circle style="fill:#1D1D1F;" cx="377.348" cy="402.203" r="53.086"/>
<path style="fill:#444547;" d="M324.262,402.207c0,29.319,23.767,53.086,53.086,53.086V349.12
	C348.029,349.12,324.262,372.888,324.262,402.207z"/>
<circle style="fill:#ACACB2;" cx="377.348" cy="402.203" r="20.176"/>
<path style="fill:#E1E1E3;" d="M357.175,402.207c0,11.142,9.032,20.174,20.174,20.174v-40.348
	C366.206,382.032,357.175,391.065,357.175,402.207z"/>
<path style="fill:#57565C;" d="M468.197,415.776h-43.961c-8.288,0-15.007-6.719-15.007-15.007v-37.474
	c0-8.288,6.719-15.007,15.007-15.007h43.961c8.288,0,15.007,6.719,15.007,15.007v37.474
	C483.204,409.057,476.485,415.776,468.197,415.776z"/>
<path style="fill:#8A8A91;" d="M446.216,348.289h-21.98c-8.288,0-15.007,6.719-15.007,15.007v37.474
	c0,8.288,6.719,15.007,15.007,15.007h21.981v-67.487H446.216z"/>
<path style="fill:#73A8DB;" d="M321.054,245.78h-11.556c-8.198,0-14.844,6.646-14.844,14.844v9.844
	c0,8.198,6.646,14.844,14.844,14.844h11.556V245.78z"/>
</svg>