<?xml version="1.0" encoding="iso-8859-1"?>
<!-- Uploaded to: SVG Repo, www.svgrepo.com, Generator: SVG Repo Mixer Tools -->
<svg height="800px" width="800px" version="1.1" id="Layer_1" xmlns="http://www.w3.org/2000/svg" xmlns:xlink="http://www.w3.org/1999/xlink" 
	 viewBox="0 0 511.999 511.999" xml:space="preserve">
<polygon style="fill:#67D1D3;" points="439.965,220.168 70.996,220.168 95.1,77.537 415.861,77.537 "/>
<polygon style="fill:#38979E;" points="255.48,220.168 439.965,220.168 415.861,77.537 255.48,77.537 "/>
<path style="fill:#286569;" d="M341.495,295.493c-42.863,0-77.736-34.873-77.736-77.736s34.873-77.736,77.736-77.736
	s77.736,34.873,77.736,77.736S384.358,295.493,341.495,295.493z M341.495,176.178c-22.927,0-41.579,18.653-41.579,41.579
	s18.653,41.579,41.579,41.579s41.579-18.653,41.579-41.579S364.422,176.178,341.495,176.178z"/>
<path style="fill:#38979E;" d="M288.02,94.687h-14.462V74.723h-36.156v19.964h-14.462c-9.984,0-18.078,8.094-18.078,18.078
	s8.094,18.078,18.078,18.078h65.081c9.984,0,18.078-8.094,18.078-18.078S298.006,94.687,288.02,94.687z"/>
<path style="fill:#286569;" d="M288.02,94.687h-14.462V74.723H255.48v56.12h32.54c9.984,0,18.078-8.094,18.078-18.078
	S298.006,94.687,288.02,94.687z"/>
<path style="fill:#0C2A5B;" d="M459.891,163.839h-23.667c-4.316,0-8.413,1.89-11.217,5.173c-2.803,3.283-4.027,7.627-3.348,11.889
	c1.783,11.22,3.436,23.257,5.053,36.798c0.886,7.414,7.176,12.997,14.643,12.997h55.895c8.145,0,14.748-6.603,14.748-14.748
	C512,187.217,488.624,163.839,459.891,163.839z"/>
<path style="fill:#18397A;" d="M73.062,163.839H52.109C23.376,163.839,0,187.217,0,215.95c0,8.145,6.603,14.748,14.748,14.748
	h53.206c7.069,0,13.144-5.017,14.482-11.958l0.104-0.525c0.074-0.372,0.146-0.744,0.216-1.117c0-0.006,0.001-0.011,0.002-0.016
	c0.415-2.25,0.818-4.618,1.232-7.23c0.043-0.277,0.216-1.466,0.405-2.788c0.181-1.265,0.382-2.677,0.481-3.329
	c0.048-0.265,0.09-0.533,0.125-0.803c0.611-4.765,1.173-9.573,1.715-14.224c0.325-2.785,0.65-5.569,0.986-8.352
	c0.506-4.191-0.806-8.395-3.605-11.553C81.298,165.646,77.281,163.839,73.062,163.839z M83.537,207.711
	c0.558-1.103,0.982-2.29,1.252-3.542C84.529,205.419,84.103,206.606,83.537,207.711z"/>
<path style="fill:#2A4997;" d="M446.073,240.301H64.889c-5.308,0-10.349-2.333-13.784-6.38c-3.436-4.047-4.917-9.401-4.054-14.638
	l17.767-107.776c5.802-35.216,35.921-60.777,71.613-60.777h238.1c35.692,0,65.81,25.561,71.614,60.777l17.765,107.776
	c0.864,5.238-0.618,10.59-4.053,14.638C456.422,237.968,451.381,240.301,446.073,240.301z M86.19,204.145h338.581l-14.301-86.759
	c-0.001,0-0.001,0-0.001,0c-2.912-17.673-18.026-30.501-35.938-30.501h-238.1c-17.912,0-33.026,12.828-35.938,30.501L86.19,204.145z
	"/>
<path style="fill:#18397A;" d="M446.144,111.506c-5.803-35.216-35.922-60.777-71.614-60.777H255.48v36.156h119.05
	c17.912,0,33.026,12.828,35.938,30.501c0,0,0,0,0.001,0l14.301,86.758H255.48V240.3h190.592c5.308,0,10.349-2.333,13.784-6.38
	c3.436-4.047,4.917-9.401,4.053-14.638L446.144,111.506z"/>
<path style="fill:#3E3E42;" d="M122.129,343.348H47.95c-9.984,0-18.078,8.094-18.078,18.078v57.321
	c0,23.447,19.076,42.523,42.523,42.523h25.288c23.447,0,42.523-19.076,42.523-42.523v-57.321
	C140.207,351.441,132.113,343.348,122.129,343.348z"/>
<path style="fill:#1D1D1F;" d="M463.694,343.348h-74.179c-9.984,0-18.078,8.094-18.078,18.078v57.321
	c0,23.447,19.076,42.523,42.523,42.523h25.288c23.447,0,42.523-19.076,42.523-42.523v-57.321
	C481.772,351.441,473.678,343.348,463.694,343.348z"/>
<path style="fill:#5F98D1;" d="M418.381,201.735H92.578c-47.546,0-86.229,43.644-86.229,97.29v50.951
	c0,28.856,20.808,52.332,46.382,52.332h405.495c25.577,0,46.383-23.476,46.383-52.332v-50.951
	C504.611,245.379,465.929,201.735,418.381,201.735z"/>
<g>
	<path style="fill:#18397A;" d="M328.328,284.252H182.632c-9.984,0-18.078-8.094-18.078-18.078s8.094-18.078,18.078-18.078h145.697
		c9.984,0,18.078,8.094,18.078,18.078S338.312,284.252,328.328,284.252z"/>
	<path style="fill:#18397A;" d="M328.328,336.048H182.632c-9.984,0-18.078-8.094-18.078-18.078s8.094-18.078,18.078-18.078h145.697
		c9.984,0,18.078,8.094,18.078,18.078S338.312,336.048,328.328,336.048z"/>
</g>
<path style="fill:#3B6EAF;" d="M418.381,201.735H255.48v200.575h202.748c25.577,0,46.383-23.476,46.383-52.332v-50.951
	C504.611,245.379,465.929,201.735,418.381,201.735z"/>
<g>
	<path style="fill:#0C2A5B;" d="M328.328,248.096H255.48v36.156h72.848c9.984,0,18.078-8.094,18.078-18.078
		S338.312,248.096,328.328,248.096z"/>
	<path style="fill:#0C2A5B;" d="M328.328,299.892H255.48v36.156h72.848c9.984,0,18.078-8.094,18.078-18.078
		S338.312,299.892,328.328,299.892z"/>
</g>
<path style="fill:#E1E1E3;" d="M328.395,446.174H182.565c-9.984,0-18.078-8.094-18.078-18.078v-51.574
	c0-9.984,8.094-18.078,18.078-18.078h145.829c9.984,0,18.078,8.094,18.078,18.078v51.574
	C346.473,438.079,338.38,446.174,328.395,446.174z"/>
<path style="fill:#8A8A91;" d="M328.395,358.443H255.48v87.73h72.915c9.984,0,18.078-8.094,18.078-18.078v-51.574
	C346.473,366.538,338.38,358.443,328.395,358.443z"/>
<circle style="fill:#F7DC4D;" cx="96.838" cy="290.622" r="33.718"/>
<circle style="fill:#EDA637;" cx="414.806" cy="290.622" r="33.718"/>
</svg>