<?xml version="1.0" encoding="iso-8859-1"?>
<!-- Uploaded to: SVG Repo, www.svgrepo.com, Generator: SVG Repo Mixer Tools -->
<svg height="800px" width="800px" version="1.1" id="Layer_1" xmlns="http://www.w3.org/2000/svg" xmlns:xlink="http://www.w3.org/1999/xlink" 
	 viewBox="0 0 512.006 512.006" xml:space="preserve">
<path style="fill:#6E190C;" d="M139.913,243.137v-37.621H81.118v47.556c0,26.52,18.743,49.343,44.757,54.5l136.169,26.993
	l8.063-40.675L164.379,272.93C150.158,270.111,139.913,257.635,139.913,243.137z"/>
<path style="fill:#9D2217;" d="M110.516,205.517H81.118v47.555c0,0.272,0.014,0.543,0.018,0.815h29.38V205.517z"/>
<g>
	<path style="fill:#2D2E30;" d="M296.32,421.658h-91.001c-10.893,0-19.723-8.831-19.723-19.723v-17.189h130.448v17.189
		C316.044,412.828,307.214,421.658,296.32,421.658z"/>
	<path style="fill:#2D2E30;" d="M159.507,159.357c-3.174,0-5.747,2.573-5.747,5.747v15.715H67.271v-15.715
		c0-3.174-2.573-5.747-5.747-5.747H46.169c-3.174,0-5.747,2.573-5.747,5.747v42.254c0,3.174,2.573,5.747,5.747,5.747h128.692
		c3.174,0,5.747-2.573,5.747-5.747v-42.254c0-3.174-2.573-5.747-5.747-5.747H159.507z"/>
</g>
<path d="M380.204,333.478c-1.851,0-3.731-0.303-5.577-0.943c-8.888-3.079-13.596-12.781-10.516-21.667l83.957-242.288
	c3.08-8.889,12.785-13.594,21.667-10.516c8.888,3.079,13.596,12.781,10.516,21.667l-83.957,242.288
	C393.855,329.06,387.258,333.478,380.204,333.478z"/>
<g>
	<path style="fill:#2D2E30;" d="M404.553,349.574l-64.367-22.304l25.594-73.862c1.039-3,4.313-4.588,7.313-3.549l53.506,18.54
		c3,1.039,4.588,4.313,3.549,7.313L404.553,349.574z"/>
</g>
<path style="fill:#DE3205;" d="M310.974,271.43l-203.272,81.926c-21.301,8.584-15.158,40.257,7.807,40.257H415.25
	c19.437,0,28.335-24.223,13.519-36.805L332.3,274.882C326.386,269.859,318.172,268.53,310.974,271.43z"/>
<circle style="fill:#1D1D1F;" cx="61.267" cy="393.618" r="61.267"/>
<circle style="fill:#FFFFFF;" cx="61.267" cy="393.618" r="19.851"/>
<path style="fill:#DE3205;" d="M175.866,279.547l-92.873,29.27c-8.96,2.824-18.084-3.867-18.084-13.262v-37.097
	c0-7.68,6.225-13.905,13.905-13.905h90.334c6.027,0,11.367,3.882,13.227,9.615l2.539,7.827
	C187.297,269.344,183.234,277.225,175.866,279.547z"/>
<path style="fill:#9D2217;" d="M428.77,356.808l-96.469-81.926c-5.915-5.024-14.128-6.353-21.327-3.451l-45.585,18.372v103.809
	h149.862C434.688,393.613,443.585,369.39,428.77,356.808z"/>
<g>
	<path style="fill:#780F13;" d="M259.654,364.945c-1.744,0-3.487-0.664-4.816-1.995c-2.661-2.66-2.661-6.973,0-9.634l30.539-30.539
		c2.66-2.66,6.976-2.66,9.632,0c2.661,2.66,2.661,6.973,0,9.634l-30.539,30.539C263.14,364.28,261.396,364.945,259.654,364.945z"/>
	<path style="fill:#780F13;" d="M297.394,364.945c-1.743,0-3.487-0.665-4.816-1.995c-2.661-2.66-2.661-6.973-0.001-9.634
		l30.539-30.539c2.659-2.66,6.975-2.66,9.632,0c2.661,2.66,2.661,6.973,0,9.634l-30.537,30.539
		C300.881,364.28,299.137,364.945,297.394,364.945z"/>
	<path style="fill:#780F13;" d="M335.134,364.945c-1.744,0-3.487-0.664-4.816-1.995c-2.661-2.66-2.661-6.973,0-9.634l30.539-30.539
		c2.66-2.66,6.976-2.66,9.632,0c2.661,2.66,2.661,6.973,0,9.634l-30.539,30.539C338.62,364.28,336.876,364.945,335.134,364.945z"/>
</g>
<path style="fill:#57565C;" d="M110.516,180.818H67.271v-15.715c0-3.174-2.574-5.747-5.748-5.747H46.169
	c-3.174,0-5.747,2.573-5.747,5.747v42.254c0,3.174,2.574,5.747,5.747,5.747h64.347V180.818z"/>
<circle style="fill:#1D1D1F;" cx="450.738" cy="393.618" r="61.267"/>
<circle style="fill:#FFFFFF;" cx="450.738" cy="393.618" r="19.851"/>
</svg>