<?xml version="1.0" encoding="iso-8859-1"?>
<!-- Uploaded to: SVG Repo, www.svgrepo.com, Generator: SVG Repo Mixer Tools -->
<svg version="1.1" id="Layer_1" xmlns="http://www.w3.org/2000/svg" xmlns:xlink="http://www.w3.org/1999/xlink" 
	 viewBox="0 0 512 512" xml:space="preserve">
<rect x="233.798" y="90.561" style="fill:#57565C;" width="44.415" height="330.889"/>
<rect x="257.738" y="90.561" style="fill:#2D2E30;" width="20.473" height="330.889"/>
<g>
	<rect x="111.525" y="68.343" style="fill:#C6C5CA;" width="288.961" height="44.415"/>
	<rect x="111.525" y="399.243" style="fill:#C6C5CA;" width="288.961" height="44.415"/>
</g>
<g>
	<rect x="257.738" y="68.343" style="fill:#8A8A91;" width="142.748" height="44.415"/>
	<rect x="257.738" y="399.243" style="fill:#8A8A91;" width="142.748" height="44.415"/>
</g>
<path style="fill:#E1E1E3;" d="M302.471,259.836h-90.89c-9.198,0-16.655,7.457-16.655,16.655v90.891
	c0,9.198,7.457,16.655,16.655,16.655h90.89c9.198,0,16.655-7.457,16.655-16.655v-90.891
	C319.126,267.294,311.67,259.836,302.471,259.836z"/>
<path style="fill:#8A8A91;" d="M302.471,259.836h-44.737v124.202h44.737c9.198,0,16.655-7.457,16.655-16.655v-90.891
	C319.126,267.294,311.67,259.836,302.471,259.836z"/>
<g>
	<path style="fill:#1D1D1F;" d="M111.522,0C80.757,0,55.727,25.029,55.727,55.794v69.524c0,30.765,25.03,55.794,55.795,55.794
		s55.794-25.029,55.794-55.794V55.794C167.315,25.029,142.287,0,111.522,0z"/>
	<path style="fill:#1D1D1F;" d="M400.478,0c-30.765,0-55.794,25.029-55.794,55.794v69.524c0,30.765,25.029,55.794,55.794,55.794
		s55.795-25.029,55.795-55.794V55.794C456.273,25.029,431.243,0,400.478,0z"/>
	<path style="fill:#1D1D1F;" d="M111.522,330.889c-30.765,0-55.795,25.029-55.795,55.794v69.524
		c0,30.765,25.03,55.794,55.795,55.794s55.794-25.029,55.794-55.794v-69.524C167.315,355.917,142.287,330.889,111.522,330.889z"/>
	<path style="fill:#1D1D1F;" d="M400.478,330.889c-30.765,0-55.794,25.029-55.794,55.794v69.524
		c0,30.765,25.029,55.794,55.794,55.794s55.795-25.029,55.795-55.794v-69.524C456.273,355.917,431.243,330.889,400.478,330.889z"/>
</g>
<g>
	<path style="fill:#3E3E42;" d="M112.356,0.021C112.077,0.017,111.801,0,111.522,0C80.757,0,55.727,25.029,55.727,55.794v69.524
		c0,30.765,25.03,55.794,55.795,55.794c0.28,0,0.555-0.017,0.834-0.021C112.356,181.09,112.356,0.021,112.356,0.021z"/>
	<path style="fill:#3E3E42;" d="M401.313,0.021C401.035,0.017,400.759,0,400.48,0c-30.765,0-55.795,25.029-55.795,55.794v69.524
		c0,30.765,25.03,55.794,55.795,55.794c0.28,0,0.555-0.017,0.834-0.021L401.313,0.021L401.313,0.021z"/>
	<path style="fill:#3E3E42;" d="M112.356,330.91c-0.279-0.004-0.554-0.021-0.834-0.021c-30.765,0-55.795,25.029-55.795,55.794
		v69.524c0,30.765,25.03,55.794,55.795,55.794c0.28,0,0.555-0.017,0.834-0.021V330.91z"/>
	<path style="fill:#3E3E42;" d="M401.313,330.91c-0.279-0.004-0.554-0.021-0.834-0.021c-30.765,0-55.795,25.029-55.795,55.794
		v69.524c0,30.765,25.03,55.794,55.795,55.794c0.28,0,0.555-0.017,0.834-0.021V330.91z"/>
</g>
</svg>