<?xml version="1.0" encoding="iso-8859-1"?>
<!-- Uploaded to: SVG Repo, www.svgrepo.com, Generator: SVG Repo Mixer Tools -->
<svg height="800px" width="800px" version="1.1" id="Layer_1" xmlns="http://www.w3.org/2000/svg" xmlns:xlink="http://www.w3.org/1999/xlink" 
	 viewBox="0 0 512 512" xml:space="preserve">
<path style="fill:#3E3E42;" d="M321.592,85.178H190.408c-49.775,0-90.269,40.495-90.269,90.269V421.73
	c0,49.775,40.495,90.269,90.269,90.269h131.182c49.775,0,90.269-40.495,90.269-90.269V175.446
	C411.86,125.673,371.365,85.178,321.592,85.178z"/>
<path style="fill:#1D1D1F;" d="M321.592,85.178h-65.591V512h65.591c49.775,0,90.269-40.495,90.269-90.269V175.448
	C411.86,125.673,371.365,85.178,321.592,85.178z"/>
<path style="fill:#0E0E0F;" d="M347.394,343.212c0,33.995-27.558,61.553-61.553,61.553s-61.553-27.558-61.553-61.553V129.483
	h123.107v213.729H347.394z"/>
<path style="fill:#C6C5CA;" d="M301.633,62.238h-32.035c-9.208,0-16.672,7.465-16.672,16.672v234.617
	c0,9.208,7.465,16.672,16.672,16.672h32.035c9.208,0,16.672-7.465,16.672-16.672V78.91C318.305,69.703,310.84,62.238,301.633,62.238
	z"/>
<path style="fill:#8A8A91;" d="M318.305,121.92V78.91c0-9.208-7.465-16.672-16.672-16.672h-32.035
	c-9.208,0-16.672,7.465-16.672,16.672v43.01H318.305z"/>
<circle style="fill:#8DC652;" cx="166.601" cy="207.426" r="22.682"/>
<circle style="fill:#FFFFFF;" cx="166.601" cy="275.905" r="22.682"/>
<circle style="fill:#DE3205;" cx="166.601" cy="347.852" r="22.682"/>
<path style="fill:#2D2E30;" d="M352.733,0H218.496c-15.192,0-27.508,12.315-27.508,27.508v46.835
	c0,15.192,12.315,27.508,27.508,27.508h134.237c15.192,0,27.508-12.315,27.508-27.508V27.508C380.241,12.315,367.925,0,352.733,0z"
	/>
<path style="fill:#57565C;" d="M285.841,0h-67.345c-15.192,0-27.508,12.315-27.508,27.508v46.835
	c0,15.192,12.315,27.508,27.508,27.508h67.345V0z"/>
</svg>