<?xml version="1.0" encoding="iso-8859-1"?>
<!-- Uploaded to: SVG Repo, www.svgrepo.com, Generator: SVG Repo Mixer Tools -->
<svg version="1.1" id="Layer_1" xmlns="http://www.w3.org/2000/svg" xmlns:xlink="http://www.w3.org/1999/xlink" 
	 viewBox="0 0 512 512" xml:space="preserve">
<rect x="139.367" y="50.682" style="fill:#2D2E30;" width="77.659" height="46.671"/>
<g>
	<rect x="178.196" y="50.682" style="fill:#1D1D1F;" width="38.829" height="46.671"/>
	<rect x="139.367" y="50.682" style="fill:#1D1D1F;" width="77.659" height="17.606"/>
</g>
<path style="fill:#8A8A91;" d="M102.104,117.849v365.351c0,15.905,12.894,28.799,28.799,28.799h250.192
	c15.905,0,28.799-12.894,28.799-28.799V262.359c0-7.638-3.034-14.963-8.435-20.364L256.951,97.485
	c-5.401-5.401-12.726-8.435-20.364-8.435H130.904C114.998,89.05,102.104,101.944,102.104,117.849z"/>
<path style="fill:#497FC1;" d="M226.14,0h-95.884c-6.41,0-11.605,5.195-11.605,11.605v32.473c0,6.41,5.195,11.605,11.605,11.605
	h95.884c6.41,0,11.605-5.195,11.605-11.605V11.605C237.745,5.195,232.549,0,226.14,0z"/>
<path style="fill:#3E3E42;" d="M256.951,97.485c-0.28-0.28-0.569-0.55-0.859-0.818V512h125.005
	c15.905,0,28.799-12.894,28.799-28.799V262.359c0-7.638-3.034-14.963-8.435-20.364L256.951,97.485z"/>
<circle style="fill:#D9D8DB;" cx="254.219" cy="316.535" r="95.432"/>
<path style="fill:#797882;" d="M256.09,221.154v190.768c51.835-1.004,93.554-43.309,93.554-95.384S307.926,222.158,256.09,221.154z"
	/>
<path style="fill:#57565C;" d="M295.804,331.074c0,21.983-17.821,39.804-39.804,39.804s-39.804-17.821-39.804-39.804
	c0-15.61,20.069-52.041,31.706-71.855c3.631-6.182,12.565-6.182,16.195,0C275.734,279.032,295.804,315.464,295.804,331.074z"/>
<path style="fill:#1D1D1F;" d="M256,254.582v116.295c21.983,0,39.804-17.821,39.804-39.804c0-15.61-20.069-52.041-31.706-71.855
	C262.282,256.127,259.141,254.582,256,254.582z"/>
<path style="fill:#779DD2;" d="M178.197,0h-47.943c-6.41,0-11.605,5.195-11.605,11.605v32.473c0,6.41,5.195,11.605,11.605,11.605
	h47.943V0z"/>
</svg>