<?xml version="1.0" encoding="iso-8859-1"?>
<!-- Uploaded to: SVG Repo, www.svgrepo.com, Generator: SVG Repo Mixer Tools -->
<svg version="1.1" id="Layer_1" xmlns="http://www.w3.org/2000/svg" xmlns:xlink="http://www.w3.org/1999/xlink" 
	 viewBox="0 0 512 512" xml:space="preserve">
<rect x="55.652" y="16.696" style="fill:#E9E9E9;" width="400.696" height="478.609"/>
<rect x="256" y="16.696" style="fill:#D4D4D4;" width="200.348" height="478.609"/>
<path style="fill:#595959;" d="M418.685,307.024H93.315C41.862,307.024,0,265.163,0,213.709v-86.646h55.652v33.391H33.391v53.255
	c0,33.042,26.882,59.924,59.924,59.924h325.368c33.043,0,59.924-26.882,59.924-59.924v-53.255h-22.261v-33.391h55.652v86.646
	C512,265.163,470.138,307.024,418.685,307.024z"/>
<path style="fill:#444242;" d="M418.685,307.024H256v-33.391h162.685c33.043,0,59.924-26.882,59.924-59.924v-53.255h-22.261v-33.391
	H512v86.646C512,265.163,470.138,307.024,418.685,307.024z"/>
<path style="fill:#E06B34;" d="M137.04,16.696v116.599c0,16.439,13.326,29.765,29.765,29.765s29.765-13.326,29.765-29.765v-14.575
	c0-16.439,13.326-29.765,29.765-29.765s29.765,13.326,29.765,29.765v58.356c0,16.439,13.326,29.765,29.765,29.765
	c16.439,0,29.765-13.326,29.765-29.765V16.696H137.04z"/>
<g>
	<rect x="27.186" style="fill:#AAAAAA;" width="457.628" height="33.391"/>
	<rect x="27.186" y="478.609" style="fill:#AAAAAA;" width="457.628" height="33.391"/>
</g>
<g>
	<rect x="256" style="fill:#818181;" width="228.808" height="33.391"/>
	<rect x="256" y="478.609" style="fill:#818181;" width="228.808" height="33.391"/>
</g>
</svg>