<?xml version="1.0" encoding="iso-8859-1"?>
<!-- Uploaded to: SVG Repo, www.svgrepo.com, Generator: SVG Repo Mixer Tools -->
<svg version="1.1" id="Layer_1" xmlns="http://www.w3.org/2000/svg" xmlns:xlink="http://www.w3.org/1999/xlink" 
	 viewBox="0 0 512.001 512.001" xml:space="preserve">
<path style="fill:#67D1D3;" d="M472.386,185.085c-4.044-22.934-23.918-39.554-47.205-39.554c-80.328,0-257.807,0-338.357,0
	c-23.238,0-43.17,16.669-47.205,39.554L17.555,310.202c-2.462,13.964,1.385,28.3,10.504,39.158
	c9.119,10.858,22.58,17.11,36.759,17.11c95.659,0,286.713,0,382.369,0c14.169,0,27.607-6.274,36.72-17.122
	c9.113-10.849,13.004-25.191,10.542-39.146L472.386,185.085z"/>
<path style="fill:#38979E;" d="M472.386,185.085c-4.044-22.933-23.918-39.554-47.205-39.554c-40.182,0-104.673,0-169.181,0V366.47
	c71.679,0,143.358,0,191.187,0c14.169,0,27.607-6.273,36.72-17.122c9.113-10.85,13.004-25.192,10.542-39.146L472.386,185.085z"/>
<path style="fill:#8A8A91;" d="M293.834,176.927h-21.015v-25.79c0-9.289-7.531-16.819-16.819-16.819
	c-9.289,0-16.819,7.531-16.819,16.819v25.79h-19.351c-9.289,0-16.819,7.531-16.819,16.819s7.531,16.819,16.819,16.819h74.005
	c9.289,0,16.819-7.531,16.819-16.819S303.124,176.927,293.834,176.927z"/>
<path style="fill:#57565C;" d="M293.834,176.927h-21.015v-25.79c0-9.289-7.531-16.819-16.819-16.819v76.248h37.835
	c9.289,0,16.819-7.531,16.819-16.819S303.124,176.927,293.834,176.927z"/>
<g style="opacity:0.5;">
	<path style="fill:#FFFFFF;" d="M266.089,171.925c-108.39,0-197.709,81.593-209.924,186.706h74.981
		c36.607-30.406,83.635-48.697,134.943-48.697c16.599,0,32.745,1.923,48.24,5.541c41-18.805,82.236-37.104,123.398-55.542
		C399.355,206.635,336.779,171.925,266.089,171.925z"/>
</g>
<rect x="283.741" y="229.082" transform="matrix(-0.4761 -0.8794 0.8794 -0.4761 160.3505 739.8522)" style="fill:#57565C;" width="33.639" height="186.159"/>
<path style="fill:#1D1D1F;" d="M282.89,309.934c-8.137,0-15.291-5.917-16.594-14.209c-1.443-9.177,4.826-17.785,14.003-19.228
	l158.55-24.932c9.178-1.442,17.785,4.826,19.228,14.003c1.443,9.177-4.826,17.785-14.003,19.228l-158.55,24.932
	C284.638,309.867,283.758,309.934,282.89,309.934z"/>
<path style="fill:#2D2E30;" d="M447.187,383.289H64.818c-19.209,0-37.301-8.424-49.639-23.112
	C2.828,345.472-2.345,326.192,0.991,307.281l22.064-125.117c5.462-30.972,32.281-53.452,63.769-53.452h338.357
	c31.488,0,58.307,22.48,63.769,53.452l22.064,125.117c3.329,18.88-1.857,38.155-14.227,52.885
	C484.442,374.862,466.364,383.289,447.187,383.289z M86.824,162.35c-15.133,0-28.02,10.79-30.642,25.655L34.119,313.123
	c-1.602,9.087,0.882,18.352,6.82,25.419c5.929,7.06,14.634,11.109,23.88,11.109h382.369c9.215,0,17.905-4.053,23.841-11.121
	c5.955-7.09,8.455-16.351,6.858-25.407l-22.064-125.116c-2.622-14.866-15.509-25.655-30.642-25.655L86.824,162.35L86.824,162.35z"/>
</svg>